<?xml version="1.0" standalone="no"?>
<!DOCTYPE svg PUBLIC "-//W3C//DTD SVG 20010904//EN"
 "http://www.w3.org/TR/2001/REC-SVG-20010904/DTD/svg10.dtd">
<svg version="1.0" xmlns="http://www.w3.org/2000/svg"
 width="3690.000000pt" height="3690.000000pt" viewBox="0 0 3690.000000 3690.000000"
 preserveAspectRatio="xMidYMid meet">
<metadata>
Created by potrace 1.14, written by Peter Selinger 2001-2017
</metadata>
<g transform="translate(0.000000,3690.000000) scale(0.100000,-0.100000)"
fill="#000000" stroke="none">
<path d="M18426 29783 c-4 -4 -12 -8 -19 -9 -7 -1 -36 -9 -66 -18 -30 -9 -66
-16 -81 -16 -14 0 -46 -10 -71 -22 -24 -12 -48 -21 -53 -20 -4 2 -13 -1 -20
-6 -6 -5 -28 -15 -50 -22 -52 -17 -279 -132 -320 -163 -6 -4 -33 -22 -61 -40
-27 -17 -55 -36 -61 -42 -7 -5 -24 -19 -39 -30 -48 -35 -206 -198 -291 -301
-74 -90 -234 -315 -234 -330 0 -3 -8 -18 -19 -32 -30 -43 -137 -255 -180 -355
-101 -237 -193 -564 -215 -767 -3 -25 -7 -55 -10 -67 -21 -97 -29 -552 -13
-726 5 -56 4 -87 -2 -83 -5 3 -9 -10 -9 -32 1 -56 -10 -181 -16 -191 -3 -5 -9
-26 -12 -47 -9 -61 -10 -66 -23 -114 -85 -320 -257 -596 -510 -813 -99 -86
-375 -249 -442 -262 -10 -2 -26 -8 -37 -14 -25 -13 -188 -62 -226 -67 -16 -2
-35 -9 -43 -16 -12 -10 -12 -13 2 -20 8 -5 24 -11 35 -14 11 -2 30 -7 43 -10
12 -3 31 -7 42 -9 16 -3 178 -51 230 -69 6 -2 25 -7 43 -11 18 -4 35 -12 38
-16 3 -5 10 -7 15 -3 5 3 15 1 22 -4 7 -5 30 -15 52 -22 150 -48 591 -257 697
-331 14 -11 29 -19 33 -19 13 0 287 -185 390 -263 248 -188 470 -400 699 -667
37 -44 160 -203 196 -255 19 -28 38 -51 42 -53 4 -2 8 -8 8 -13 0 -5 16 -31
35 -58 95 -132 288 -493 383 -716 28 -66 52 -127 54 -135 2 -8 5 -17 8 -20 3
-3 21 -52 39 -110 19 -58 40 -111 47 -119 13 -14 115 -23 133 -11 8 4 42 114
56 177 6 29 87 277 93 288 4 6 7 12 7 15 1 10 28 85 34 95 3 6 6 12 7 15 0 3
9 25 20 50 10 25 18 48 16 53 -1 4 2 7 8 7 5 0 10 8 10 18 0 10 7 28 16 40 8
12 13 22 10 22 -5 0 166 340 207 410 15 25 30 52 33 60 15 33 119 205 126 208
5 2 8 8 8 14 0 9 142 219 184 273 203 258 229 289 416 475 143 142 154 153
290 266 156 129 573 424 601 424 5 0 9 4 9 9 0 5 8 11 18 14 17 6 73 38 82 47
3 3 61 36 130 73 69 38 136 74 150 82 14 7 25 19 25 26 0 7 -54 39 -121 73
-291 147 -541 391 -692 676 -16 30 -37 69 -46 85 -9 17 -16 36 -16 43 0 6 -4
12 -10 12 -5 0 -9 3 -8 8 1 4 -3 18 -9 32 -6 14 -19 50 -28 80 -10 30 -20 62
-23 70 -3 8 -6 18 -7 23 -2 4 -3 8 -5 10 -1 1 -3 10 -5 21 -2 10 -9 39 -15 65
-22 97 -22 92 -36 216 -13 113 -6 424 12 510 3 11 6 36 9 55 11 93 74 304 123
410 14 30 26 57 26 60 5 27 202 352 225 370 4 3 18 21 31 40 13 19 28 38 32
41 4 3 19 20 32 38 52 71 120 136 246 236 41 33 81 65 88 72 7 7 46 36 87 64
57 39 75 57 75 75 0 32 -14 38 -97 40 -40 1 -78 6 -85 10 -7 5 -19 9 -28 11
-8 1 -30 5 -49 8 -19 3 -39 9 -45 14 -7 6 -18 6 -26 1 -9 -5 -19 -5 -27 2 -8
6 -16 8 -19 5 -3 -3 -36 6 -72 20 -37 14 -74 26 -82 28 -61 14 -232 95 -308
147 -69 46 -160 127 -301 266 -129 125 -290 244 -401 294 -130 59 -150 68
-159 68 -5 0 -26 8 -47 17 -52 22 -48 21 -134 38 -41 8 -88 18 -105 23 -16 5
-38 8 -47 6 -10 -1 -18 2 -18 7 0 10 -624 12 -634 2z"/>
<path d="M31397 28292 c-10 -10 -17 -24 -17 -30 0 -6 -9 -14 -20 -17 -11 -3
-25 -15 -30 -26 -6 -10 -15 -19 -21 -19 -5 0 -24 -15 -42 -32 -18 -18 -57 -53
-86 -78 -30 -25 -69 -58 -88 -75 -61 -55 -88 -76 -95 -76 -7 0 -38 -27 -100
-87 -16 -15 -28 -23 -28 -19 0 5 -29 -16 -64 -47 -35 -31 -68 -56 -75 -56 -6
0 -21 -11 -33 -25 -12 -14 -27 -25 -34 -25 -7 0 -26 -13 -42 -30 -17 -16 -35
-30 -41 -30 -6 0 -19 -10 -31 -22 -11 -12 -27 -23 -35 -24 -9 -1 -31 -15 -50
-31 -60 -50 -89 -69 -122 -82 -18 -8 -33 -18 -33 -23 0 -5 -16 -16 -35 -24
-20 -8 -38 -21 -41 -28 -3 -8 -19 -16 -35 -20 -16 -3 -40 -16 -52 -29 -12 -13
-34 -27 -49 -31 -16 -3 -28 -11 -28 -16 0 -6 -25 -22 -55 -36 -30 -15 -55 -30
-55 -35 0 -5 -11 -9 -24 -9 -12 0 -35 -11 -50 -25 -15 -14 -37 -27 -50 -31
-13 -3 -34 -15 -47 -27 -13 -12 -28 -22 -33 -23 -26 -5 -63 -23 -75 -38 -7 -9
-24 -16 -36 -16 -12 0 -34 -12 -49 -26 -14 -15 -37 -26 -51 -26 -14 0 -36 -12
-50 -25 -13 -14 -38 -27 -55 -28 -18 -1 -41 -14 -55 -29 -16 -17 -34 -26 -56
-26 -21 0 -37 -8 -50 -24 -11 -13 -27 -23 -37 -21 -21 3 -49 -10 -79 -38 -12
-11 -29 -17 -37 -14 -9 4 -18 2 -21 -4 -4 -5 -10 -7 -14 -4 -5 2 -20 -7 -34
-21 -17 -16 -40 -27 -63 -30 -23 -2 -48 -13 -64 -29 -15 -15 -36 -26 -46 -25
-38 4 -54 -1 -80 -25 -15 -14 -36 -25 -48 -26 -40 -1 -58 -8 -80 -28 -12 -12
-33 -21 -47 -20 -38 1 -57 -6 -81 -29 -15 -13 -38 -22 -63 -23 -43 -3 -91 -22
-97 -39 -2 -6 -24 -12 -50 -14 -57 -5 -88 -14 -88 -27 0 -15 -51 -32 -98 -31
-30 0 -48 -5 -61 -20 -13 -14 -37 -21 -78 -25 -35 -3 -74 -15 -100 -29 -28
-16 -57 -24 -91 -24 -35 0 -63 -8 -96 -26 -33 -19 -65 -27 -104 -29 -55 -2
-96 -13 -135 -36 -11 -6 -51 -13 -90 -16 -40 -3 -101 -14 -137 -25 -55 -17
-131 -28 -190 -30 -13 0 -39 -6 -105 -24 -37 -10 -67 -15 -115 -19 -30 -2 -82
-7 -115 -11 -33 -5 -68 -8 -77 -7 -10 0 -18 -3 -18 -7 0 -4 -13 -6 -30 -5 -16
1 -30 -1 -30 -5 0 -8 -1 -8 -95 -14 -38 -3 -88 -9 -110 -13 -22 -4 -53 -7 -70
-8 -16 -1 -37 -4 -45 -7 -8 -4 -35 -9 -60 -11 -25 -3 -56 -8 -70 -12 -14 -4
-47 -8 -75 -10 -27 -2 -60 -6 -73 -9 -12 -3 -49 -6 -82 -7 -33 -1 -60 -6 -60
-11 0 -5 -5 -6 -10 -3 -6 4 -17 2 -24 -4 -6 -6 -32 -13 -57 -16 -75 -10 -143
-17 -174 -19 -16 -1 -41 -8 -55 -16 -14 -8 -29 -13 -34 -12 -4 2 -13 -1 -20
-6 -6 -4 -40 -9 -76 -11 -42 -2 -76 -9 -95 -21 -29 -18 -54 -24 -148 -34 -21
-2 -46 -11 -56 -20 -15 -13 -54 -22 -139 -30 -12 -2 -33 -13 -46 -26 -15 -13
-32 -20 -40 -17 -9 4 -16 2 -16 -3 0 -5 -9 -6 -22 -1 -23 8 -67 -8 -88 -34 -7
-9 -29 -15 -52 -15 -40 0 -75 -13 -93 -36 -5 -7 -32 -15 -60 -19 -31 -4 -59
-15 -73 -28 -13 -12 -35 -22 -50 -23 -36 -1 -79 -20 -84 -35 -2 -7 -17 -14
-34 -15 -47 -4 -58 -8 -77 -31 -12 -16 -29 -23 -52 -23 -22 0 -45 -9 -65 -26
-17 -15 -44 -27 -61 -28 -17 -1 -38 -11 -52 -26 -13 -16 -35 -27 -56 -29 -22
-2 -42 -12 -53 -27 -11 -13 -22 -23 -26 -23 -29 5 -55 -5 -74 -26 -12 -14 -32
-25 -44 -25 -13 0 -33 -11 -46 -24 -13 -13 -36 -27 -52 -30 -16 -4 -36 -16
-45 -27 -9 -11 -27 -21 -40 -24 -14 -2 -36 -16 -51 -30 -14 -14 -33 -25 -41
-25 -7 0 -27 -11 -43 -25 -16 -14 -35 -25 -42 -25 -7 0 -26 -11 -42 -25 -17
-14 -33 -25 -37 -25 -5 0 -24 -12 -44 -27 -20 -16 -40 -28 -44 -28 -4 0 -18
-10 -31 -22 -12 -12 -36 -28 -52 -35 -16 -7 -36 -21 -45 -30 -9 -10 -24 -18
-33 -18 -9 0 -19 -7 -22 -15 -3 -8 -26 -26 -50 -40 -24 -14 -44 -30 -44 -34 0
-5 -11 -12 -25 -15 -14 -4 -35 -18 -47 -31 -12 -14 -26 -25 -32 -25 -6 0 -19
-9 -31 -20 -11 -11 -40 -36 -65 -55 -68 -52 -100 -78 -127 -102 -13 -13 -27
-23 -31 -23 -4 0 -18 -11 -32 -25 -25 -24 -64 -61 -202 -187 -180 -166 -270
-260 -259 -271 8 -8 24 -4 58 13 25 13 63 25 82 27 20 2 59 12 86 22 28 11 73
21 100 25 110 12 127 16 138 24 15 12 77 23 147 28 163 10 210 15 242 28 34
15 167 24 420 30 75 2 133 8 141 15 8 6 29 13 48 15 19 3 34 5 34 6 0 1 59 3
130 6 291 9 309 10 344 28 24 13 64 19 135 22 56 2 137 6 181 7 48 2 92 10
110 19 44 23 100 30 255 32 102 2 145 7 175 19 49 22 97 28 260 31 78 1 139 7
153 15 12 6 22 9 22 6 0 -3 10 1 23 10 17 11 65 16 192 19 192 6 187 5 235 30
28 16 62 19 186 21 152 3 209 9 230 27 23 17 138 38 156 27 6 -4 16 -5 21 -2
5 3 52 5 105 5 56 -1 101 3 109 10 7 6 13 8 13 4 0 -4 14 1 31 10 38 19 95 25
259 28 96 2 134 6 165 20 46 21 113 30 208 26 59 -3 171 12 191 25 32 21 55
25 195 29 101 3 126 7 163 26 36 19 61 23 151 25 93 2 115 6 157 28 31 16 62
24 89 24 23 -1 41 1 41 5 0 4 11 3 24 -2 13 -5 27 -6 30 -3 3 4 18 8 32 9 15
2 36 11 48 22 14 13 38 20 76 21 99 4 118 8 147 29 20 14 51 22 97 25 50 4 77
12 99 27 20 16 46 23 86 25 40 1 66 9 92 27 22 15 53 25 76 26 22 1 65 15 97
30 31 16 66 27 79 25 13 -3 31 4 44 16 21 20 38 26 98 36 16 2 41 13 56 24 14
11 39 22 55 24 37 6 64 17 64 26 0 7 37 23 93 41 20 6 37 16 37 20 0 5 19 14
42 20 23 7 57 23 75 37 18 14 36 23 40 20 3 -4 23 7 43 23 21 17 47 30 57 30
11 0 30 11 43 25 13 14 31 25 40 25 9 0 31 11 50 25 19 14 38 25 43 25 5 0 18
11 29 25 11 14 27 25 37 25 9 0 30 13 45 29 16 16 39 32 53 36 14 3 23 9 20
12 -8 8 15 29 41 37 12 4 22 14 22 22 0 8 4 14 9 14 4 0 24 15 43 33 67 62 98
87 107 87 5 0 13 9 16 21 4 11 17 25 30 31 12 5 29 21 36 34 7 13 18 24 26 24
7 0 18 11 23 24 5 13 12 25 17 27 5 2 35 36 67 74 32 39 65 74 72 78 8 4 14
14 14 21 0 7 11 22 25 32 14 10 25 24 25 30 0 6 11 21 25 34 14 13 25 28 25
34 0 6 14 26 30 45 17 18 30 39 30 46 0 6 9 20 20 30 11 10 20 23 20 29 0 6
16 31 35 55 19 24 35 52 35 61 0 10 7 23 16 30 18 16 34 44 39 70 2 10 13 28
25 40 11 11 18 25 15 29 -3 5 10 31 28 59 19 27 32 57 31 68 -2 10 9 34 24 54
15 19 28 47 29 63 2 15 12 40 23 55 10 15 21 48 23 74 3 28 14 59 29 80 20 27
25 43 23 88 -2 44 3 63 25 98 24 39 27 53 28 140 1 105 8 160 22 178 6 6 7 13
4 17 -3 3 -1 15 6 26 20 38 14 222 -10 298 -16 51 -22 94 -22 171 0 89 -2 104
-18 112 -24 13 -24 13 -43 -8z"/>
<path d="M5445 28240 c-16 -54 -18 -99 -18 -393 0 -183 3 -345 6 -360 3 -16
15 -44 26 -62 11 -20 19 -52 19 -79 0 -62 11 -106 34 -138 10 -15 20 -48 21
-76 2 -32 11 -59 25 -77 12 -15 22 -37 22 -48 0 -11 14 -49 30 -83 17 -34 33
-72 35 -84 2 -11 13 -36 23 -53 11 -18 23 -43 27 -57 4 -14 18 -39 31 -56 13
-17 24 -36 24 -43 0 -6 10 -28 23 -49 12 -20 28 -46 35 -57 7 -11 26 -44 43
-73 18 -30 38 -56 46 -59 8 -3 12 -11 9 -18 -2 -7 5 -21 16 -32 20 -17 58 -71
85 -117 17 -30 54 -75 81 -99 12 -11 22 -26 22 -33 0 -7 9 -16 20 -19 11 -3
20 -10 20 -15 0 -5 76 -85 170 -177 200 -198 226 -223 236 -223 4 0 19 -11 33
-24 15 -14 33 -26 40 -28 8 -2 26 -15 39 -30 13 -16 30 -28 38 -28 8 0 25 -11
37 -26 12 -14 30 -26 39 -28 10 -1 28 -11 40 -23 13 -11 34 -24 48 -28 14 -4
32 -16 41 -27 8 -11 27 -21 42 -22 16 -2 38 -13 51 -25 13 -12 33 -23 44 -26
25 -4 82 -36 82 -45 0 -3 8 -6 18 -7 27 -2 72 -22 72 -32 0 -9 39 -23 73 -26
10 -1 28 -12 41 -24 12 -11 30 -21 39 -21 9 0 17 -5 17 -11 0 -5 5 -7 11 -3 6
3 34 -5 62 -20 29 -14 66 -27 83 -29 18 -2 39 -11 49 -20 16 -17 28 -21 98
-32 20 -3 37 -10 37 -14 0 -13 51 -31 100 -35 27 -2 60 -13 81 -28 25 -17 52
-25 89 -27 32 -1 64 -9 79 -20 36 -25 67 -34 125 -34 38 0 59 -6 81 -23 24
-18 44 -23 105 -25 58 -1 86 -8 124 -27 38 -20 66 -26 125 -28 85 -3 90 -4
146 -29 29 -13 69 -19 147 -21 94 -1 111 -5 140 -25 30 -21 46 -24 178 -29
110 -4 153 -10 177 -23 17 -9 49 -19 70 -22 21 -3 43 -8 50 -10 7 -2 15 0 18
5 3 5 11 7 18 4 7 -2 55 -6 108 -8 67 -2 107 -9 140 -23 36 -16 69 -20 164
-22 152 -2 223 -9 257 -27 36 -19 86 -25 238 -28 141 -4 165 -7 200 -26 36
-20 44 -21 157 -25 55 -1 106 -6 111 -9 6 -3 13 -3 16 2 4 7 63 7 96 -1 8 -2
33 -12 55 -22 39 -18 71 -21 280 -26 73 -2 112 -8 145 -23 31 -13 72 -20 135
-22 157 -5 268 -15 289 -27 12 -6 23 -12 26 -13 3 0 12 -3 20 -7 8 -3 85 -8
170 -10 169 -5 203 -9 222 -24 24 -19 73 -26 208 -29 161 -3 213 -9 245 -30
19 -12 61 -16 192 -19 185 -3 310 -13 333 -25 31 -16 109 -23 275 -26 211 -4
272 -8 310 -24 37 -16 58 -19 165 -25 120 -6 193 -16 208 -28 7 -6 30 -11 50
-13 20 -2 66 -8 102 -14 36 -5 71 -11 78 -12 6 -1 12 -5 12 -9 0 -6 40 -17 90
-24 47 -7 74 -15 79 -24 4 -5 19 -13 34 -16 42 -11 34 17 -19 67 -58 55 -179
170 -289 276 -47 45 -89 82 -93 82 -4 0 -19 12 -33 28 -24 25 -47 45 -122 105
-15 12 -39 32 -53 44 -14 13 -38 30 -55 38 -16 9 -33 23 -36 31 -3 7 -11 14
-18 14 -7 0 -23 11 -36 25 -13 13 -29 25 -36 25 -6 0 -20 10 -30 23 -10 12
-33 29 -50 36 -18 7 -33 17 -33 21 0 4 -16 15 -35 24 -19 9 -35 21 -35 27 0 5
-20 18 -45 29 -25 11 -45 23 -45 28 0 5 -12 15 -27 22 -16 8 -40 25 -54 38
-14 12 -36 24 -48 25 -11 1 -21 4 -21 7 0 4 -19 17 -41 30 -23 12 -50 31 -60
41 -11 11 -25 19 -33 19 -8 0 -28 11 -45 25 -16 14 -39 28 -51 30 -12 2 -35
16 -51 30 -17 14 -37 25 -45 25 -9 0 -33 14 -54 31 -21 17 -43 28 -48 25 -5
-3 -27 8 -48 25 -21 16 -44 27 -51 25 -7 -3 -23 5 -35 19 -13 13 -39 26 -58
29 -19 3 -39 11 -45 19 -13 18 -49 37 -71 37 -10 0 -29 11 -43 24 -15 15 -42
27 -63 29 -23 3 -45 13 -56 27 -13 16 -30 23 -59 24 -23 1 -48 9 -58 20 -21
21 -58 36 -88 36 -11 0 -31 9 -43 21 -19 18 -44 26 -106 32 -9 1 -26 12 -38
25 -16 17 -32 22 -70 22 -27 0 -52 5 -55 10 -13 21 -81 47 -115 45 -24 -2 -42
4 -58 18 -25 23 -34 26 -111 32 -34 3 -61 11 -75 23 -15 14 -42 22 -92 26 -46
3 -85 13 -107 26 -24 14 -58 22 -106 25 -41 2 -91 13 -119 25 -27 12 -56 20
-63 19 -8 -1 -41 1 -74 5 -33 5 -73 10 -88 11 -15 2 -49 10 -75 19 -44 14 -87
20 -237 31 -33 3 -74 10 -90 15 -17 6 -49 12 -70 15 -52 6 -105 13 -182 23
-40 5 -63 5 -63 -1 0 -5 -7 -4 -15 3 -8 7 -15 10 -15 7 0 -3 -26 1 -57 8 -89
20 -162 31 -273 40 -41 3 -93 11 -115 16 -22 5 -51 12 -65 15 -14 2 -32 7 -40
9 -8 2 -49 7 -90 10 -41 4 -102 16 -135 27 -33 11 -89 21 -125 23 -56 2 -96
13 -161 45 -8 4 -41 8 -71 8 -39 -1 -67 5 -91 20 -46 26 -68 33 -126 36 -29 2
-59 11 -77 24 -19 13 -48 22 -84 24 -36 2 -69 12 -94 27 -23 14 -56 25 -86 26
-31 2 -59 11 -78 25 -17 12 -45 23 -64 24 -40 3 -78 15 -78 25 0 14 -50 31
-89 31 -23 0 -44 6 -52 16 -16 20 -56 36 -91 38 -14 0 -38 12 -52 25 -14 14
-26 22 -26 19 0 -12 -84 14 -114 35 -17 12 -44 22 -59 21 -19 -1 -34 7 -47 23
-11 14 -32 25 -52 27 -39 5 -68 15 -68 25 0 11 -47 31 -72 31 -12 0 -34 11
-48 25 -14 14 -41 27 -60 29 -19 2 -42 13 -51 25 -11 13 -29 21 -48 21 -21 0
-39 9 -56 29 -18 20 -34 27 -51 25 -18 -2 -35 6 -53 24 -14 15 -39 29 -56 31
-16 1 -41 14 -54 27 -13 13 -34 24 -46 24 -12 0 -30 9 -40 20 -9 10 -34 25
-54 31 -20 6 -44 20 -54 30 -10 11 -26 19 -36 19 -10 0 -30 11 -45 25 -15 14
-30 25 -34 26 -28 3 -44 10 -64 28 -12 12 -34 25 -48 28 -14 3 -38 19 -54 34
-15 15 -34 25 -41 23 -7 -3 -19 3 -26 14 -8 10 -24 22 -36 26 -12 4 -38 20
-59 37 -20 16 -39 27 -42 25 -2 -3 -13 4 -24 14 -12 10 -35 26 -52 34 -18 8
-40 24 -51 36 -10 11 -23 20 -30 20 -7 0 -25 11 -41 25 -16 14 -37 28 -46 31
-10 3 -18 9 -18 14 0 5 -17 19 -37 30 -50 28 -101 65 -123 90 -9 11 -23 20
-29 20 -7 0 -26 14 -43 30 -16 17 -33 28 -37 25 -5 -2 -18 6 -30 18 -12 12
-37 36 -57 52 -19 17 -46 40 -60 53 -14 12 -29 22 -33 22 -5 0 -19 11 -32 25
-13 13 -29 25 -34 25 -6 0 -36 25 -68 55 -32 30 -61 55 -66 55 -5 0 -16 11
-25 24 -8 14 -24 27 -34 30 -10 4 -25 17 -32 31 -7 13 -16 22 -20 20 -3 -2
-30 21 -59 51 -29 30 -58 54 -65 54 -7 0 -21 -27 -31 -60z"/>
<path d="M0 25683 c0 -16 9 -36 20 -46 17 -15 23 -30 19 -53 -1 -3 11 -18 26
-34 14 -15 27 -38 27 -51 1 -13 13 -40 27 -59 14 -19 26 -45 27 -57 0 -13 12
-35 25 -49 12 -13 25 -37 26 -52 2 -15 15 -35 28 -45 16 -12 25 -29 25 -46 0
-16 12 -40 30 -59 17 -18 30 -44 30 -58 0 -13 9 -29 20 -36 11 -7 20 -17 20
-21 0 -5 13 -28 30 -52 16 -24 30 -51 30 -61 0 -9 9 -25 21 -35 11 -10 30 -35
41 -56 11 -21 26 -50 34 -64 8 -14 25 -38 39 -53 14 -15 25 -33 25 -40 0 -7 9
-21 20 -31 11 -10 20 -23 20 -30 0 -6 16 -30 35 -52 19 -23 35 -45 35 -49 0
-4 10 -18 21 -30 22 -23 26 -29 64 -94 11 -18 30 -43 43 -55 12 -12 22 -25 22
-29 0 -7 27 -41 208 -261 101 -124 125 -149 293 -322 54 -56 99 -106 99 -112
0 -6 4 -11 9 -11 5 0 71 -61 146 -135 76 -74 139 -135 141 -135 1 0 27 -25 58
-55 30 -30 59 -55 64 -55 6 0 17 -11 26 -24 8 -14 25 -27 36 -31 11 -3 20 -13
20 -21 0 -8 4 -14 9 -14 5 0 29 -16 53 -35 59 -48 93 -76 125 -102 16 -12 44
-36 64 -52 20 -17 42 -31 48 -31 6 0 18 -11 27 -25 9 -14 24 -25 33 -25 10 0
27 -12 40 -26 12 -14 35 -30 52 -36 16 -5 29 -16 29 -24 0 -8 6 -14 14 -14 8
0 30 -13 48 -30 18 -16 38 -30 44 -30 6 0 24 -11 40 -25 16 -14 33 -25 38 -25
4 0 24 -13 43 -30 18 -16 40 -30 48 -30 8 0 25 -11 39 -25 14 -14 34 -25 44
-25 11 0 23 -7 26 -15 3 -9 21 -22 40 -30 19 -8 38 -20 42 -26 3 -6 26 -20 49
-30 23 -10 48 -25 54 -33 7 -8 25 -17 40 -21 16 -3 38 -17 50 -30 11 -14 30
-25 40 -25 11 0 31 -11 45 -25 14 -14 34 -25 44 -25 11 0 31 -11 46 -25 15
-14 36 -25 47 -25 11 0 32 -12 46 -26 15 -15 40 -28 57 -29 16 -1 38 -12 47
-24 10 -13 35 -25 56 -28 21 -3 48 -17 60 -30 13 -14 34 -23 51 -23 19 0 41
-11 61 -29 21 -19 39 -27 57 -25 18 2 34 -5 49 -22 15 -16 37 -26 64 -29 26
-3 50 -13 66 -29 18 -18 35 -25 59 -24 23 1 44 -7 64 -24 20 -16 43 -25 70
-26 28 -1 49 -10 68 -27 20 -18 38 -25 69 -25 27 0 48 -7 61 -19 11 -10 31
-22 45 -26 21 -7 34 -9 85 -14 5 -1 20 -10 32 -21 15 -14 39 -21 77 -24 36 -2
64 -10 79 -22 26 -22 31 -23 99 -29 27 -3 65 -14 84 -26 21 -13 56 -23 87 -25
28 -2 70 -11 91 -21 22 -9 42 -17 45 -18 17 -4 90 -16 115 -20 17 -2 50 -11
75 -20 50 -18 62 -20 138 -30 30 -4 72 -13 93 -20 21 -8 39 -12 39 -9 0 2 8 1
18 -4 16 -9 90 -21 162 -27 19 -2 67 -11 105 -20 106 -25 104 -25 193 -30 45
-3 119 -14 165 -25 45 -11 136 -22 201 -26 157 -7 303 -24 366 -42 14 -4 98
-7 187 -7 90 0 163 -2 163 -5 0 -12 1316 1 1336 12 5 3 33 9 63 12 29 4 58 9
63 12 5 3 46 8 91 10 211 9 286 16 342 30 33 9 89 18 125 19 102 6 199 16 231
25 16 5 29 7 29 5 0 -3 12 0 26 5 14 6 49 13 77 16 118 12 184 23 242 39 28 7
73 16 100 20 69 9 140 23 203 42 30 8 68 17 85 19 85 8 134 17 152 27 25 14
40 18 90 22 90 9 124 17 135 30 12 14 57 24 125 27 22 0 56 10 75 22 38 23 40
23 124 30 37 3 69 12 86 24 19 15 48 22 99 25 56 3 76 8 95 26 18 17 39 23 87
26 35 2 69 4 75 4 5 1 20 10 32 21 15 14 40 21 89 25 46 4 77 12 97 26 19 15
47 22 86 24 70 3 101 13 117 35 9 13 27 17 77 18 62 0 101 12 121 38 6 7 41
14 82 16 57 3 79 9 105 28 25 19 47 25 93 26 81 2 78 1 104 25 18 17 37 22 95
24 68 2 113 16 128 38 3 6 35 12 70 14 83 4 128 12 128 22 0 17 51 30 126 31
64 2 88 7 123 27 35 21 59 26 130 28 87 2 114 8 141 30 8 7 22 13 30 13 8 1
62 4 119 7 79 4 115 10 145 26 33 17 63 21 165 25 149 4 165 6 256 31 67 19
111 20 819 20 722 1 774 -1 832 -29 27 -13 63 -17 187 -22 69 -3 103 -9 115
-19 22 -20 50 -26 146 -32 47 -2 85 -10 95 -19 24 -21 58 -29 134 -31 38 -1
72 -6 75 -12 15 -22 69 -40 122 -38 44 1 62 -4 89 -23 25 -19 50 -26 100 -30
47 -3 71 -10 84 -23 10 -11 21 -19 25 -19 4 -1 26 -5 50 -9 23 -5 42 -5 42 0
0 12 55 -9 77 -31 21 -19 99 -30 120 -17 18 11 5 41 -27 62 -16 11 -27 22 -24
24 4 5 -5 15 -79 91 -15 15 -27 33 -27 38 0 6 -9 14 -20 17 -11 3 -20 10 -20
15 0 12 -137 150 -149 150 -6 0 -11 6 -11 14 0 7 -12 22 -28 32 -15 9 -31 23
-37 30 -5 7 -44 40 -85 74 -41 33 -88 72 -105 85 -16 14 -32 25 -36 25 -4 0
-9 9 -12 20 -3 11 -12 20 -21 20 -9 0 -16 5 -16 10 0 6 -6 10 -13 10 -7 0 -18
9 -25 20 -7 11 -21 20 -32 20 -10 0 -25 8 -32 18 -7 11 -24 25 -38 32 -13 7
-33 24 -43 37 -10 12 -26 23 -35 23 -9 0 -28 12 -41 25 -12 14 -27 22 -32 19
-5 -3 -9 0 -9 7 0 7 -2 10 -5 7 -3 -3 -20 8 -36 23 -17 16 -34 27 -39 24 -4
-2 -17 7 -30 20 -13 14 -38 28 -57 31 -19 4 -33 12 -33 20 0 15 -14 23 -45 28
-9 1 -25 10 -37 20 -11 10 -37 25 -56 33 -20 8 -50 25 -66 38 -17 12 -36 21
-42 18 -6 -2 -22 7 -37 21 -14 13 -40 27 -58 31 -17 4 -47 18 -67 31 -20 14
-43 24 -51 23 -22 -2 -61 12 -61 21 0 10 -48 30 -74 30 -13 0 -35 9 -49 20
-14 11 -34 20 -44 20 -11 0 -23 3 -27 8 -4 4 -15 7 -24 7 -10 0 -37 10 -62 22
-25 12 -62 24 -84 27 -21 4 -53 13 -70 20 -42 19 -95 35 -131 40 -16 2 -57 13
-90 24 -33 12 -85 24 -115 27 -30 3 -84 15 -119 27 -35 11 -87 22 -115 24 -87
5 -133 12 -153 23 -11 5 -30 11 -44 13 -13 2 -28 6 -34 9 -5 3 -47 6 -93 7
-96 1 -171 8 -227 23 -22 5 -49 12 -60 14 -37 9 -128 15 -295 20 -164 4 -218
8 -275 19 -110 22 -184 26 -490 31 -137 2 -284 9 -325 15 -156 25 -215 29
-555 35 -307 6 -356 10 -510 41 -16 4 -163 8 -325 10 -291 3 -454 9 -468 18
-4 2 -26 7 -48 10 -22 4 -51 9 -64 12 -14 4 -162 8 -330 10 -168 2 -321 7
-340 10 -19 4 -42 8 -50 9 -8 1 -37 7 -65 13 -82 19 -243 31 -292 21 -18 -4
-33 -4 -33 0 0 3 -78 6 -173 6 -143 0 -186 3 -253 21 -50 13 -116 21 -170 22
-49 0 -166 3 -260 5 -143 5 -189 10 -264 32 -37 11 -112 16 -303 20 -167 3
-234 8 -255 19 -46 23 -91 29 -257 32 -210 4 -237 7 -320 32 -58 17 -97 21
-227 21 -163 0 -194 4 -241 28 -32 16 -107 23 -276 27 -95 2 -125 6 -161 23
-38 19 -68 22 -200 26 -133 4 -162 8 -204 27 -41 19 -70 23 -191 26 -125 2
-146 6 -179 25 -32 19 -55 22 -164 25 -148 4 -150 4 -186 28 -15 9 -34 15 -41
12 -7 -2 -16 -2 -19 2 -4 3 -55 7 -113 9 -86 3 -113 7 -140 24 -23 15 -54 21
-105 24 -134 6 -173 11 -208 30 -20 11 -60 19 -95 21 -102 4 -164 13 -187 27
-22 14 -86 24 -193 31 -28 2 -66 11 -85 21 -19 10 -55 19 -80 21 -116 8 -149
13 -186 29 -21 9 -55 18 -74 19 -19 2 -46 6 -60 10 -14 3 -41 8 -60 10 -19 2
-69 13 -110 24 -41 11 -98 23 -127 27 -28 3 -75 15 -105 26 -29 10 -67 19 -85
19 -17 0 -34 4 -37 9 -3 5 -15 7 -25 4 -11 -3 -44 4 -75 16 -30 11 -77 23
-104 26 -68 8 -92 13 -106 23 -19 13 -85 34 -94 28 -13 -8 -94 13 -132 33 -20
11 -59 20 -90 22 -33 1 -69 10 -90 21 -40 23 -60 29 -117 32 -22 2 -57 13 -76
25 -22 13 -56 22 -94 25 -42 2 -69 10 -90 26 -19 13 -48 23 -74 25 -24 1 -52
3 -61 4 -9 0 -23 7 -30 14 -25 25 -53 35 -99 34 -34 0 -55 6 -80 24 -19 14
-47 26 -64 28 -72 5 -87 9 -106 27 -21 19 -29 21 -98 28 -26 3 -53 14 -67 26
-16 16 -37 23 -71 24 -33 1 -58 9 -80 25 -20 15 -49 25 -79 27 -30 2 -55 11
-69 24 -12 11 -32 23 -45 25 -12 2 -25 7 -28 9 -2 3 -12 1 -22 -4 -12 -6 -24
-2 -43 16 -24 22 -127 51 -127 36 0 -3 -8 5 -19 16 -10 12 -29 24 -42 26 -13
3 -24 5 -24 6 0 1 -16 3 -34 5 -21 2 -41 12 -51 24 -11 16 -29 22 -68 25 -39
3 -57 9 -70 26 -11 14 -33 24 -56 27 -22 2 -47 8 -57 14 -16 8 -19 6 -19 -18z"/>
<path d="M36766 25665 c-16 -14 -36 -25 -45 -26 -48 -2 -76 -10 -95 -27 -12
-11 -42 -22 -70 -26 -31 -3 -58 -14 -73 -28 -16 -15 -38 -23 -61 -24 -44 -1
-73 -12 -89 -34 -8 -11 -27 -17 -56 -17 -45 -1 -87 -16 -87 -33 0 -10 -55 -24
-90 -22 -14 1 -38 -9 -54 -23 -16 -14 -34 -26 -40 -26 -6 -1 -30 -3 -54 -4
-27 -2 -52 -11 -65 -23 -19 -17 -60 -28 -123 -31 -6 -1 -24 -11 -39 -23 -18
-14 -44 -22 -77 -24 -34 -2 -62 -11 -87 -28 -26 -18 -51 -26 -86 -27 -49 -2
-76 -12 -103 -36 -7 -7 -21 -14 -30 -14 -9 -1 -33 -2 -52 -4 -53 -3 -55 -4
-76 -22 -23 -21 -25 -21 -101 -29 -31 -3 -68 -13 -82 -23 -15 -11 -53 -21 -91
-25 -43 -4 -74 -13 -93 -27 -21 -15 -47 -22 -89 -24 -39 -2 -76 -11 -106 -27
-27 -14 -68 -25 -97 -27 -52 -2 -110 -18 -134 -35 -7 -6 -23 -11 -35 -12 -67
-6 -106 -14 -146 -29 -25 -9 -56 -18 -70 -19 -62 -7 -120 -19 -175 -36 -33
-11 -80 -22 -105 -25 -56 -6 -151 -28 -166 -37 -6 -4 -33 -10 -60 -13 -27 -4
-56 -8 -64 -10 -8 -2 -37 -7 -65 -11 -27 -3 -56 -11 -62 -16 -7 -6 -13 -7 -13
-2 0 4 -5 3 -12 -4 -7 -7 -33 -12 -58 -12 -26 0 -50 -3 -54 -7 -4 -5 -29 -8
-55 -9 -27 0 -65 -8 -86 -18 -21 -10 -58 -19 -84 -21 -25 -2 -46 -4 -46 -5 0
-1 -26 -3 -59 -5 -32 -2 -68 -11 -81 -19 -22 -14 -113 -28 -211 -31 -31 -1
-63 -9 -80 -20 -29 -19 -44 -21 -185 -29 -59 -3 -98 -11 -125 -25 -31 -15 -65
-21 -159 -25 -100 -3 -128 -8 -164 -27 -38 -19 -60 -22 -170 -23 -111 -2 -132
-5 -171 -25 -38 -20 -61 -23 -181 -26 -118 -2 -145 -6 -183 -25 -25 -12 -50
-19 -56 -15 -5 3 -10 3 -10 -2 0 -4 -33 -9 -73 -9 -186 -4 -232 -9 -272 -28
-33 -17 -63 -21 -165 -22 -162 -3 -225 -10 -289 -34 -42 -17 -83 -21 -224 -24
-170 -4 -214 -8 -247 -26 -19 -10 -68 -22 -87 -21 -19 1 -22 1 -210 -4 -139
-4 -185 -9 -234 -25 -43 -15 -95 -22 -173 -25 -61 -2 -111 -4 -111 -5 0 0 -58
-2 -130 -5 -137 -4 -174 -7 -190 -16 -35 -21 -86 -24 -446 -32 -91 -2 -170 -6
-175 -9 -5 -3 -27 -9 -49 -13 -22 -5 -47 -10 -55 -12 -8 -3 -46 -6 -85 -8 -38
-2 -71 -4 -72 -5 -4 -2 -72 -2 -75 0 -8 5 -48 6 -48 1 0 -8 -96 -5 -109 4 -6
3 -11 3 -11 -2 0 -4 -37 -8 -83 -9 -95 0 -173 -8 -237 -23 -92 -21 -122 -23
-405 -26 -305 -4 -340 -6 -427 -24 -97 -20 -121 -22 -423 -27 -337 -5 -392 -8
-540 -34 -38 -6 -127 -13 -198 -14 -70 -2 -130 -6 -134 -9 -3 -4 -12 -2 -20 4
-7 6 -13 8 -13 3 0 -5 -87 -10 -193 -10 -105 -1 -212 -5 -237 -8 -25 -4 -58
-9 -75 -11 -16 -3 -41 -7 -55 -10 -25 -6 -159 -11 -485 -20 -175 -4 -238 -8
-300 -19 -110 -19 -218 -27 -388 -30 -112 -2 -203 -8 -214 -15 -11 -5 -22 -8
-25 -6 -3 3 -29 -2 -59 -11 -34 -10 -99 -18 -174 -19 -66 -1 -127 -5 -135 -8
-37 -12 -105 -32 -115 -33 -5 0 -12 -2 -15 -3 -9 -4 -54 -9 -105 -12 -27 -1
-75 -11 -105 -21 -30 -10 -73 -21 -95 -24 -73 -9 -150 -26 -161 -35 -6 -5 -38
-14 -70 -20 -68 -12 -126 -30 -135 -42 -4 -5 -22 -10 -41 -11 -19 -1 -40 -6
-47 -10 -7 -5 -15 -6 -18 -3 -3 3 -23 -5 -44 -19 -21 -13 -51 -24 -67 -24 -15
0 -33 -5 -40 -12 -7 -7 -12 -9 -12 -4 0 4 -14 -3 -31 -15 -28 -20 -41 -24 -91
-28 -9 0 -29 -12 -45 -25 -15 -13 -40 -24 -55 -24 -14 0 -40 -9 -57 -21 -17
-12 -39 -24 -50 -26 -28 -5 -65 -26 -74 -41 -4 -7 -16 -11 -26 -9 -10 2 -34
-10 -52 -25 -19 -16 -46 -29 -61 -30 -15 0 -31 -6 -35 -12 -13 -21 -39 -38
-64 -43 -13 -3 -31 -13 -39 -24 -8 -10 -26 -22 -40 -26 -14 -4 -35 -17 -48
-28 -12 -12 -30 -22 -39 -23 -9 -2 -27 -14 -40 -28 -13 -14 -35 -29 -49 -32
-13 -3 -29 -15 -35 -25 -5 -11 -18 -19 -29 -19 -10 0 -25 -9 -33 -21 -8 -11
-28 -28 -45 -37 -54 -31 -111 -77 -112 -90 0 -7 -4 -10 -10 -7 -5 3 -24 -8
-41 -25 -18 -16 -36 -30 -40 -30 -8 0 -98 -80 -152 -135 -16 -16 -33 -30 -38
-30 -4 0 -18 -11 -31 -23 -12 -13 -67 -66 -120 -118 -54 -51 -98 -98 -98 -103
0 -5 -9 -13 -21 -16 -11 -4 -24 -18 -29 -31 -5 -13 -16 -24 -25 -24 -8 0 -15
-4 -15 -10 0 -11 -39 -57 -89 -105 -36 -35 -48 -64 -28 -66 45 -5 105 5 129
23 17 11 51 22 81 24 76 7 94 12 114 33 13 13 36 20 83 23 49 3 75 10 100 28
26 18 48 24 97 25 50 2 71 7 96 26 25 18 46 24 92 25 62 1 135 19 135 34 0 12
37 19 118 21 40 1 75 6 78 11 3 4 14 8 24 8 10 0 20 6 22 12 3 8 29 13 74 15
118 3 197 13 227 28 15 8 49 17 75 21 61 9 1438 9 1517 -1 32 -3 64 -9 70 -13
5 -4 13 -7 18 -8 4 -1 8 -2 10 -4 11 -9 169 -22 277 -22 25 0 61 -7 80 -16 19
-8 37 -16 40 -16 3 -1 10 -4 15 -7 6 -4 53 -7 105 -8 52 -1 102 -3 110 -5 25
-5 55 -19 61 -28 6 -10 66 -18 159 -22 47 -2 76 -9 104 -26 32 -19 54 -24 121
-25 69 -1 86 -5 115 -25 27 -19 48 -24 113 -26 66 -3 84 -7 103 -25 16 -15 39
-23 71 -25 26 -2 48 -3 48 -4 0 -1 17 -3 37 -4 20 -1 47 -11 58 -21 16 -14 41
-21 93 -23 55 -4 80 -10 110 -30 31 -20 51 -26 102 -26 52 -1 68 -5 89 -25 21
-19 37 -24 95 -26 55 -2 77 -8 103 -27 25 -19 48 -25 98 -27 50 -2 70 -7 87
-23 18 -17 39 -22 94 -25 57 -3 78 -9 104 -28 26 -20 43 -25 92 -25 44 0 67
-5 84 -19 31 -24 57 -32 122 -35 31 -2 66 -12 82 -22 34 -22 56 -26 166 -33 8
-1 24 -9 35 -18 10 -10 30 -19 44 -20 125 -12 144 -16 165 -33 17 -14 25 -16
110 -24 69 -7 94 -13 120 -30 13 -8 31 -15 41 -15 42 1 181 -22 199 -32 14 -8
65 -21 95 -24 77 -8 155 -21 168 -28 7 -5 77 -18 100 -20 6 0 12 -3 12 -6 0
-4 25 -6 55 -6 30 0 55 -3 55 -7 0 -3 8 -5 17 -4 9 2 35 -1 57 -6 172 -35 179
-36 285 -43 72 -5 127 -14 246 -41 11 -2 67 -6 125 -9 58 -2 105 -5 105 -5 0
-1 25 -3 55 -4 30 -2 69 -6 85 -9 122 -22 190 -29 328 -32 87 -2 161 -6 164
-9 4 -3 11 -2 17 3 6 5 32 6 59 2 26 -5 47 -5 47 0 0 4 17 3 38 -2 20 -4 37
-9 37 -10 0 -1 10 3 21 9 12 6 24 8 28 5 9 -10 527 -10 532 -1 3 4 16 3 30 -2
14 -6 30 -7 35 -4 5 3 30 5 54 4 25 0 51 -1 58 -1 312 6 375 10 482 33 53 12
63 13 254 23 69 3 128 8 131 10 4 2 20 7 36 10 16 3 34 7 39 9 30 8 88 17 150
21 103 8 123 11 200 30 39 9 88 18 110 20 50 3 101 12 143 24 17 5 32 8 32 5
0 -3 8 0 19 5 19 10 59 19 121 26 19 3 46 7 60 11 14 3 32 7 40 8 8 1 25 8 37
14 11 6 42 14 68 17 25 3 57 10 69 15 13 5 27 6 30 3 3 -4 25 3 49 15 23 11
62 22 87 23 25 1 51 7 58 12 6 5 12 6 12 2 0 -3 15 3 34 14 19 12 58 23 91 26
34 3 67 13 83 25 15 11 47 22 72 24 25 2 50 4 56 5 5 1 20 10 32 22 14 12 40
22 65 24 23 1 48 3 55 4 6 1 21 11 32 24 15 17 33 24 68 26 32 1 57 10 80 28
22 16 46 25 70 25 26 0 45 7 64 25 14 14 29 25 32 24 38 -6 70 2 91 25 17 19
37 27 67 29 29 3 47 10 59 26 11 14 29 23 53 24 25 2 47 12 65 29 16 15 39 26
55 26 16 0 38 10 51 22 12 12 33 23 46 25 28 4 69 30 69 43 0 6 14 10 30 10
20 0 39 9 54 25 13 14 31 25 41 25 10 0 33 12 52 26 18 14 42 27 52 29 27 5
61 24 61 34 0 4 18 14 41 21 23 8 43 19 46 26 3 7 17 16 33 19 15 3 36 15 46
26 10 12 33 27 51 34 18 8 42 23 54 34 12 11 25 18 29 16 4 -2 22 9 41 25 19
16 41 29 50 30 8 0 26 11 39 25 13 14 30 25 37 25 8 0 25 11 38 24 13 14 35
28 47 32 13 4 33 17 45 30 12 13 31 24 41 24 11 0 22 7 25 14 3 8 21 23 39 32
18 9 39 25 46 35 7 11 19 19 27 19 7 0 26 14 42 30 15 17 34 30 42 30 7 0 24
10 36 23 13 12 44 38 71 57 47 34 77 59 120 100 12 11 26 20 32 20 5 0 21 12
34 28 13 15 29 28 34 29 6 1 36 26 66 55 31 29 93 87 138 128 46 41 109 100
141 130 33 30 79 73 104 95 24 22 45 46 45 53 0 6 5 12 11 12 13 0 99 86 99
99 0 5 9 13 20 16 11 3 20 11 20 17 0 6 15 25 33 43 17 17 52 55 77 84 25 30
61 70 80 90 64 67 130 144 130 152 0 5 10 19 23 32 12 13 36 42 53 63 18 21
44 53 58 70 14 18 26 37 26 42 0 6 11 19 25 30 13 11 22 22 19 24 -3 3 13 28
36 54 22 27 50 60 60 72 11 13 20 28 20 33 0 12 63 102 78 113 8 4 20 22 28
40 25 52 58 103 87 131 14 15 24 32 21 37 -3 5 3 19 14 31 11 12 25 33 32 47
7 14 21 31 32 38 10 8 18 25 18 42 0 19 9 35 25 49 14 11 28 28 30 38 2 11 15
37 29 58 14 21 26 44 26 51 0 7 8 18 19 23 10 6 22 26 25 45 4 18 18 46 31 60
15 16 25 39 25 56 0 19 8 34 26 47 16 12 26 30 28 51 1 17 12 41 24 52 12 12
22 26 23 33 3 53 29 94 50 81 5 -3 9 13 9 35 l0 41 -52 0 c-42 0 -59 -5 -82
-25z"/>
<path d="M14516 21922 c-2 -1 -20 -3 -40 -4 -20 -1 -36 -5 -36 -10 0 -4 -10
-8 -23 -8 -13 0 -27 -3 -31 -7 -11 -12 -36 -14 -191 -17 -132 -2 -156 -6 -200
-26 -38 -17 -71 -23 -140 -25 -49 -2 -103 -3 -120 -4 -16 -1 -46 -11 -65 -23
-20 -12 -54 -23 -80 -24 -25 -1 -72 -3 -105 -4 -39 -2 -76 -11 -105 -26 -36
-19 -64 -24 -147 -26 -86 -3 -107 -7 -132 -25 -24 -18 -46 -23 -124 -26 -80
-3 -99 -7 -128 -28 -27 -19 -47 -24 -104 -25 -74 -1 -97 -7 -131 -34 -14 -10
-46 -16 -94 -18 -59 -2 -78 -7 -100 -25 -19 -17 -42 -24 -78 -26 -71 -3 -92
-8 -113 -27 -18 -17 -46 -23 -104 -25 -16 -1 -50 -13 -75 -26 -30 -17 -64 -27
-102 -29 -39 -2 -66 -10 -86 -24 -17 -13 -50 -23 -83 -27 -30 -3 -70 -14 -89
-25 -19 -11 -55 -22 -80 -25 -25 -3 -49 -5 -55 -6 -5 -1 -23 -11 -40 -23 -17
-12 -49 -21 -75 -23 -25 -1 -67 -12 -95 -26 -27 -13 -74 -26 -104 -30 -29 -3
-65 -15 -80 -26 -15 -11 -46 -20 -76 -22 -28 -2 -69 -13 -90 -25 -22 -11 -68
-25 -103 -31 -35 -6 -78 -18 -95 -26 -34 -18 -52 -22 -108 -30 -20 -2 -56 -13
-80 -23 -24 -11 -68 -22 -98 -26 -30 -4 -70 -14 -90 -22 -33 -14 -87 -26 -181
-41 -19 -3 -51 -12 -70 -20 -19 -8 -46 -16 -60 -18 -124 -18 -159 -25 -185
-38 -16 -8 -61 -18 -100 -22 -119 -12 -125 -13 -150 -29 -15 -10 -57 -18 -107
-22 -116 -7 -131 -10 -164 -27 -28 -14 -109 -25 -234 -31 -31 -2 -72 -12 -95
-23 -33 -17 -60 -21 -158 -22 -149 -2 -192 -8 -243 -32 -35 -17 -70 -20 -250
-23 -213 -4 -235 -6 -314 -26 -85 -21 -186 -24 -795 -23 -679 0 -716 1 -789
21 -77 21 -95 22 -326 27 -234 5 -242 6 -261 21 -28 22 -57 26 -209 30 -130 4
-161 8 -194 25 -28 14 -65 22 -130 25 -141 7 -168 11 -206 30 -19 10 -61 19
-94 20 -99 4 -159 14 -176 28 -8 8 -44 17 -80 21 -36 3 -83 8 -104 10 -22 2
-54 11 -71 20 -18 8 -50 17 -71 20 -100 12 -131 19 -155 31 -14 7 -55 18 -90
24 -115 20 -149 29 -167 43 -6 5 -12 7 -12 4 0 -3 -23 1 -51 9 -28 9 -57 13
-64 10 -7 -2 -22 2 -34 10 -11 8 -21 12 -21 8 0 -3 -11 1 -24 9 -13 9 -42 17
-64 20 -23 2 -50 11 -60 20 -22 20 -39 22 -45 5 -5 -16 51 -96 75 -109 10 -5
18 -15 18 -22 0 -7 12 -25 26 -40 14 -15 27 -37 29 -48 2 -11 28 -48 57 -81
29 -34 52 -68 50 -76 -2 -8 6 -24 17 -36 42 -44 79 -92 96 -128 9 -21 21 -38
26 -38 5 0 9 -5 9 -11 0 -6 16 -29 35 -52 19 -22 35 -46 35 -52 0 -7 9 -20 20
-30 11 -10 20 -23 20 -30 0 -7 9 -20 21 -31 12 -10 28 -32 37 -49 8 -16 23
-37 33 -46 11 -9 19 -22 19 -28 0 -11 15 -31 87 -119 13 -15 23 -32 23 -38 0
-6 10 -20 23 -32 12 -11 33 -35 47 -53 14 -18 40 -49 58 -69 17 -21 32 -42 32
-48 0 -6 8 -17 18 -24 9 -7 25 -24 34 -38 9 -14 37 -47 62 -74 25 -27 46 -53
46 -58 0 -4 7 -8 15 -8 8 0 15 -4 15 -8 0 -11 77 -92 88 -92 5 0 14 -11 20
-25 6 -14 18 -25 25 -25 8 0 20 -11 27 -25 7 -14 19 -25 25 -25 6 0 18 -11 25
-25 7 -13 21 -27 31 -30 9 -3 24 -17 33 -30 9 -14 25 -25 36 -25 13 0 20 -7
20 -19 0 -12 11 -23 30 -30 17 -5 33 -17 36 -26 3 -8 12 -15 19 -15 7 0 29
-16 50 -35 21 -19 41 -32 45 -30 4 2 19 -9 34 -26 15 -16 31 -27 37 -23 6 3
25 -8 43 -25 18 -18 37 -31 42 -29 5 2 25 -9 45 -25 20 -15 45 -27 56 -27 11
0 30 -11 43 -25 13 -14 34 -25 46 -25 12 0 36 -11 52 -25 16 -13 44 -27 63
-30 18 -3 40 -11 49 -18 29 -23 60 -37 81 -37 11 0 35 -10 52 -22 16 -12 37
-22 46 -23 36 -4 78 -19 103 -37 15 -10 48 -21 74 -23 26 -2 50 -8 53 -13 11
-17 75 -40 116 -41 22 -1 51 -10 65 -20 29 -21 75 -33 138 -36 23 -1 50 -9 60
-18 21 -19 51 -27 127 -31 35 -1 81 -12 110 -26 38 -17 74 -23 150 -27 128 -5
125 -5 125 -15 0 -4 8 -8 18 -8 10 0 23 -5 30 -12 6 -6 51 -13 104 -14 210 -8
275 -13 316 -28 23 -8 46 -15 50 -15 4 0 30 -3 57 -6 51 -7 875 -10 1160 -5
153 3 197 8 239 32 11 6 63 12 115 14 178 8 239 16 250 32 10 16 50 24 137 27
58 2 93 8 110 20 29 19 46 23 129 30 35 3 71 13 85 24 15 11 52 21 89 24 56 6
84 16 101 39 3 3 30 9 60 13 33 4 69 16 91 31 24 16 51 25 77 26 27 0 49 8 67
24 16 13 33 24 39 25 6 1 23 2 37 3 15 2 39 12 55 23 16 12 47 26 69 32 22 6
49 17 60 24 18 12 48 23 80 28 6 1 24 11 40 23 17 11 32 21 35 22 31 5 70 21
89 36 13 10 31 18 41 18 9 0 35 12 56 27 21 14 48 27 59 29 11 1 23 3 26 3 3
1 15 10 26 20 11 11 38 24 59 30 22 6 47 20 56 31 10 11 27 20 37 20 11 0 32
11 48 24 15 13 43 27 60 30 18 4 39 15 45 25 7 10 25 21 41 25 15 3 37 16 49
28 13 13 31 24 42 25 11 2 31 13 43 25 13 12 33 23 46 25 12 2 31 14 43 27 11
12 33 26 49 30 16 4 35 16 43 27 7 10 21 19 31 19 10 0 30 11 44 25 14 14 35
28 48 30 13 3 34 16 46 30 13 14 32 25 42 25 9 0 27 11 39 25 12 14 31 25 41
25 11 0 26 9 34 20 7 11 30 27 51 35 20 9 39 22 43 30 3 8 14 15 25 15 10 0
29 10 42 23 13 13 37 29 55 36 17 8 31 17 31 22 0 4 19 17 43 27 23 11 50 29
61 40 10 12 22 19 26 17 5 -3 19 6 31 20 13 13 31 25 40 25 9 0 30 14 48 30
17 17 35 28 40 26 5 -3 20 6 33 19 14 14 40 30 57 36 17 6 36 20 42 30 5 10
17 19 27 19 9 0 32 14 51 30 18 17 42 30 52 30 10 0 24 9 31 20 7 11 20 20 28
20 9 0 31 13 50 30 19 16 42 29 51 30 9 0 24 9 35 21 10 12 36 28 56 36 20 8
39 21 42 29 3 8 14 14 24 14 11 0 33 14 50 30 18 17 40 30 51 30 10 0 26 11
35 25 9 14 21 23 26 20 5 -3 24 8 43 25 19 16 42 30 51 30 9 0 26 11 38 25 12
14 27 25 33 25 7 0 29 13 50 30 20 16 41 28 45 25 4 -2 18 7 30 20 13 14 30
25 38 25 7 0 27 13 43 30 17 16 33 29 37 29 25 -4 40 4 52 26 7 14 21 25 31
25 10 0 33 13 51 29 18 15 38 26 44 24 7 -2 20 7 31 20 10 13 31 27 48 31 16
4 39 18 52 32 12 13 29 24 39 24 9 0 25 12 36 26 11 14 26 23 33 20 7 -2 28 9
46 24 19 16 42 29 51 30 9 0 29 11 45 23 15 13 43 29 62 35 19 7 40 21 48 32
7 10 20 17 27 14 7 -3 28 8 47 23 18 15 41 29 51 29 34 3 37 4 64 29 15 14 35
25 44 25 9 0 33 11 52 23 19 13 49 27 68 31 19 3 43 14 55 24 11 10 39 24 62
31 23 6 48 18 56 26 8 7 32 17 53 20 21 4 54 16 72 26 18 10 43 21 55 23 51
11 64 15 109 34 25 11 62 23 82 26 20 3 53 13 74 22 52 22 85 29 178 39 17 1
45 10 62 19 18 9 32 14 32 11 0 -3 9 -1 19 4 15 8 158 21 241 22 41 1 119 22
123 34 8 18 -24 45 -48 41 -23 -4 -55 11 -70 31 -6 8 -36 17 -68 20 -41 4 -61
11 -67 24 -10 18 -37 26 -100 31 -19 1 -48 13 -63 25 -16 13 -38 23 -50 24
-12 0 -47 2 -78 3 -40 2 -66 9 -88 25 -28 21 -46 24 -149 26 -80 2 -133 8
-167 20 -27 10 -61 20 -75 22 -28 5 -640 10 -644 5z"/>
<path d="M21935 21921 c-2 -2 -50 -5 -107 -6 -106 -2 -114 -4 -183 -29 -25 -9
-81 -15 -148 -15 -101 -1 -143 -10 -158 -34 -6 -8 -43 -13 -152 -20 -16 -1
-38 -12 -50 -23 -16 -16 -39 -22 -86 -26 -51 -4 -66 -9 -81 -28 -12 -16 -29
-24 -56 -26 -22 -1 -44 -3 -51 -3 -7 -1 -21 -10 -32 -22 -11 -12 -35 -23 -55
-25 -45 -4 -56 -10 -56 -33 0 -15 11 -20 47 -26 61 -9 132 -16 208 -19 78 -4
135 -16 161 -33 12 -8 26 -13 30 -12 5 1 32 -1 59 -5 28 -4 60 -9 71 -11 12
-2 35 -10 50 -18 16 -8 54 -20 84 -26 30 -7 75 -21 100 -31 37 -15 81 -29 110
-34 3 -1 22 -9 43 -19 21 -10 47 -20 57 -23 11 -2 30 -6 41 -9 12 -2 30 -11
39 -20 10 -9 35 -21 56 -27 22 -5 51 -19 66 -29 14 -11 37 -19 50 -19 12 0 41
-14 62 -30 22 -17 49 -30 61 -30 12 0 30 -9 39 -19 10 -11 30 -22 44 -26 15
-4 47 -20 72 -36 24 -16 50 -27 57 -24 8 2 16 -2 20 -11 6 -16 63 -50 63 -37
0 4 13 -5 28 -20 16 -15 39 -30 52 -32 13 -3 35 -16 47 -30 13 -14 34 -25 47
-25 12 0 32 -11 44 -25 12 -14 25 -25 29 -26 32 -3 47 -10 60 -28 8 -12 18
-19 23 -16 5 3 25 -8 44 -25 19 -17 44 -33 56 -35 12 -2 34 -16 48 -30 14 -14
31 -24 39 -21 7 3 20 -6 29 -19 9 -14 28 -28 43 -32 14 -3 38 -19 53 -35 14
-15 32 -26 40 -23 7 3 22 -6 32 -20 10 -14 27 -25 37 -25 10 0 29 -12 42 -26
13 -14 31 -26 39 -28 8 -1 30 -14 48 -29 18 -16 38 -26 45 -23 7 2 18 -7 26
-20 7 -14 25 -28 40 -31 15 -3 38 -16 50 -29 12 -13 26 -21 30 -18 5 3 9 0 9
-5 0 -6 5 -11 11 -11 6 0 25 -11 41 -25 16 -14 33 -23 37 -20 5 2 19 -7 31
-20 13 -14 29 -25 35 -25 7 0 29 -13 50 -30 21 -16 44 -30 52 -30 8 0 25 -11
39 -25 14 -14 30 -25 37 -25 7 0 25 -11 41 -25 17 -14 41 -28 55 -32 14 -3 32
-15 39 -25 7 -10 19 -18 25 -18 7 0 28 -13 47 -30 19 -16 42 -29 51 -30 9 0
22 -7 30 -16 7 -8 26 -22 42 -31 17 -8 39 -24 50 -34 19 -17 31 -23 48 -21 4
1 17 -10 29 -23 13 -14 29 -25 36 -25 7 0 25 -10 41 -23 15 -12 40 -29 56 -36
15 -8 27 -18 27 -23 0 -5 19 -17 43 -27 23 -10 48 -26 56 -35 7 -9 20 -16 27
-16 8 0 24 -11 35 -24 12 -13 33 -27 47 -31 14 -3 32 -15 39 -25 7 -10 26 -21
42 -25 15 -3 38 -17 50 -30 11 -14 27 -25 34 -25 8 0 26 -11 41 -25 15 -14 35
-25 44 -25 9 0 30 -14 46 -31 16 -16 35 -28 42 -25 8 3 24 -6 37 -20 13 -14
34 -26 46 -27 14 -1 28 -11 34 -24 6 -14 22 -25 44 -29 18 -3 41 -16 51 -28
16 -20 23 -23 63 -31 9 -2 28 -15 42 -29 14 -14 32 -23 40 -20 8 3 21 -3 28
-13 18 -23 64 -47 77 -39 5 3 17 -5 26 -19 10 -14 30 -27 51 -31 20 -3 41 -15
48 -25 7 -10 28 -21 47 -24 18 -3 45 -17 59 -31 16 -17 33 -24 47 -21 15 2 34
-6 56 -25 18 -15 43 -28 54 -28 12 0 32 -8 45 -19 13 -10 42 -24 64 -32 22 -7
47 -19 57 -27 9 -7 37 -20 63 -27 25 -8 58 -23 73 -34 15 -10 32 -19 37 -20
39 -4 76 -15 81 -23 8 -13 53 -30 86 -34 15 -1 39 -12 55 -23 15 -11 46 -23
68 -27 22 -3 58 -17 81 -30 25 -15 57 -24 81 -24 24 0 50 -8 64 -18 27 -21 67
-34 120 -37 20 -1 53 -12 72 -24 24 -15 57 -23 99 -26 41 -2 79 -12 108 -27
35 -19 60 -24 118 -23 39 0 72 -3 72 -7 0 -4 6 -5 14 -2 7 3 30 -5 50 -17 31
-18 57 -23 144 -26 148 -5 187 -10 242 -31 55 -21 156 -24 744 -23 595 0 644
3 766 34 30 8 93 15 140 16 205 6 226 8 265 27 22 10 51 20 65 20 14 1 25 3
25 4 0 1 38 3 85 4 65 2 95 8 128 25 29 15 67 23 124 27 60 4 89 10 111 26 19
14 48 22 86 24 61 3 104 16 126 37 7 8 37 15 67 16 34 1 62 8 79 21 29 21 75
35 100 32 8 -2 32 9 53 23 20 14 51 27 69 29 41 5 68 15 89 33 15 13 34 20 63
22 6 1 26 11 45 23 19 12 37 23 40 23 52 14 68 21 86 37 12 10 34 21 49 24 16
3 41 16 57 29 16 14 38 25 48 25 11 0 31 11 46 25 15 14 35 25 45 25 10 0 30
11 45 25 15 14 33 25 40 25 7 0 27 14 44 30 17 17 37 30 45 30 8 0 19 9 25 20
6 11 19 20 30 20 10 0 28 12 40 28 12 15 25 27 30 27 19 0 287 258 385 370 33
37 74 83 90 100 17 18 43 48 58 66 15 19 33 41 41 49 7 8 23 31 36 50 13 19
32 42 42 51 10 9 18 21 18 27 0 5 7 13 15 16 9 3 21 19 26 36 6 16 15 30 19
30 5 0 19 17 31 38 13 20 32 47 43 59 45 48 57 65 68 91 12 27 51 79 88 117
11 12 20 28 20 37 0 10 6 21 14 25 7 4 21 24 31 43 10 19 27 45 39 57 34 35
63 76 71 103 4 13 20 37 34 51 37 38 64 75 63 85 -2 15 24 52 88 122 17 18 28
38 24 43 -3 5 19 38 50 73 59 68 64 77 43 94 -10 9 -19 8 -33 -2 -10 -7 -43
-19 -73 -25 -30 -6 -60 -16 -66 -21 -7 -5 -48 -17 -93 -25 -44 -9 -96 -22
-115 -30 -35 -14 -56 -19 -136 -31 -25 -4 -67 -15 -92 -25 -44 -17 -72 -22
-179 -34 -24 -3 -47 -9 -50 -14 -7 -12 -48 -24 -90 -27 -95 -6 -154 -16 -174
-29 -26 -17 -69 -24 -167 -29 -47 -3 -89 -11 -110 -22 -19 -9 -52 -19 -74 -20
-22 -2 -82 -5 -134 -8 -63 -4 -100 -11 -111 -21 -20 -18 -67 -24 -225 -29
-128 -5 -139 -6 -170 -23 -38 -20 -91 -26 -285 -29 -205 -3 -245 -6 -319 -28
-65 -18 -103 -19 -796 -20 -615 0 -703 3 -780 23 -82 21 -115 24 -310 26 -202
2 -222 4 -285 32 -25 12 -77 17 -190 20 -130 4 -160 7 -188 24 -25 14 -60 20
-140 24 -144 8 -167 11 -196 30 -17 11 -54 18 -112 21 -108 5 -126 8 -156 28
-22 14 -70 23 -173 30 -47 3 -84 14 -104 30 -8 6 -33 11 -56 12 -23 0 -47 4
-53 8 -7 4 -16 5 -22 1 -5 -3 -29 4 -52 15 -24 11 -63 22 -86 24 -23 3 -47 8
-53 12 -7 4 -26 7 -43 6 -17 0 -35 3 -41 8 -16 13 -113 38 -175 45 -26 3 -74
19 -100 34 -9 5 -40 12 -70 16 -30 4 -73 16 -94 27 -22 10 -64 22 -95 25 -31
3 -67 13 -81 23 -29 20 -73 33 -115 33 -16 0 -49 11 -72 24 -27 16 -62 26 -99
28 -31 2 -60 8 -63 13 -12 18 -51 32 -108 39 -33 3 -69 14 -84 25 -14 11 -44
21 -65 23 -62 6 -82 12 -114 35 -16 12 -35 20 -42 19 -43 -5 -90 4 -119 24
-19 13 -53 24 -78 26 -65 4 -82 9 -101 26 -20 18 -48 26 -111 29 -28 1 -57 10
-77 24 -23 17 -51 24 -104 28 -55 4 -79 11 -95 26 -17 16 -38 22 -85 24 -35 2
-65 4 -68 5 -3 1 -9 1 -13 0 -5 -1 -22 10 -39 24 -26 22 -39 25 -107 25 -61 0
-84 4 -102 19 -35 27 -65 34 -155 35 -67 1 -85 5 -109 24 -30 24 -30 24 -155
26 -72 2 -91 6 -118 24 -33 24 -78 31 -203 32 -52 0 -70 4 -88 21 -19 18 -71
31 -121 30 -114 -3 -179 5 -201 25 -11 9 -19 14 -19 10 0 -4 -8 -2 -18 3 -10
5 -88 11 -173 12 -120 2 -163 6 -196 20 -22 10 -44 15 -47 12 -3 -4 -6 -2 -6
3 0 5 -42 10 -93 11 -50 1 -119 2 -152 3 -33 1 -62 1 -65 0 -14 -4 -100 -4
-100 0 0 6 -100 7 -105 1z"/>
<path d="M16317 20864 c-1 -1 -29 -4 -63 -6 -34 -3 -65 -8 -71 -11 -10 -6 -64
-12 -208 -22 -44 -4 -102 -8 -129 -10 -26 -2 -56 -11 -65 -19 -10 -10 -47 -18
-96 -21 -109 -9 -119 -11 -149 -30 -14 -10 -47 -19 -73 -21 -78 -5 -109 -13
-126 -32 -10 -11 -33 -19 -59 -20 -68 -4 -102 -13 -120 -35 -13 -14 -29 -19
-62 -19 -33 1 -54 -6 -83 -25 -21 -15 -51 -27 -68 -28 -37 -1 -75 -14 -75 -25
0 -11 -28 -21 -74 -26 -25 -3 -47 -13 -63 -30 -14 -15 -30 -23 -38 -20 -18 7
-63 -12 -87 -36 -10 -10 -31 -18 -47 -18 -17 0 -41 -11 -59 -26 -17 -15 -44
-28 -62 -29 -17 -2 -42 -13 -56 -26 -14 -13 -36 -24 -50 -25 -13 0 -34 -10
-47 -21 -12 -11 -40 -26 -62 -33 -22 -7 -45 -20 -51 -28 -6 -9 -22 -17 -35
-19 -28 -4 -69 -30 -69 -43 0 -6 -13 -10 -29 -10 -16 0 -39 -10 -55 -25 -15
-14 -34 -25 -42 -25 -22 0 -57 -20 -72 -42 -7 -10 -17 -16 -22 -13 -11 7 -60
-15 -60 -27 0 -5 -19 -18 -42 -28 -59 -28 -129 -67 -148 -85 -9 -8 -23 -15
-31 -15 -8 0 -31 -14 -52 -31 -20 -17 -40 -28 -45 -25 -4 2 -23 -9 -41 -25
-19 -16 -39 -29 -46 -29 -7 0 -29 -13 -50 -30 -21 -16 -43 -30 -50 -30 -7 0
-18 -7 -26 -16 -7 -9 -30 -23 -51 -31 -21 -8 -38 -19 -38 -24 0 -6 -19 -18
-43 -28 -23 -10 -48 -26 -56 -35 -7 -9 -20 -16 -27 -16 -8 0 -24 -11 -36 -25
-12 -14 -32 -25 -44 -25 -12 0 -31 -11 -42 -25 -11 -14 -26 -25 -34 -25 -9 0
-27 -11 -42 -25 -15 -14 -34 -25 -42 -25 -8 0 -26 -11 -40 -25 -14 -14 -41
-32 -60 -40 -19 -8 -37 -21 -40 -30 -3 -8 -17 -15 -30 -15 -14 0 -30 -10 -40
-24 -8 -14 -29 -28 -45 -31 -17 -4 -35 -15 -42 -26 -6 -10 -19 -19 -28 -19 -9
0 -28 -11 -41 -25 -14 -14 -40 -30 -57 -36 -17 -6 -36 -20 -42 -30 -5 -10 -16
-19 -24 -19 -7 0 -26 -11 -42 -23 -15 -13 -40 -27 -55 -31 -15 -3 -32 -15 -38
-26 -6 -11 -16 -20 -23 -20 -7 0 -30 -14 -51 -30 -22 -17 -45 -30 -52 -30 -6
0 -18 -7 -25 -17 -8 -9 -33 -25 -55 -35 -23 -10 -45 -25 -48 -34 -3 -9 -12
-14 -20 -11 -7 3 -28 -8 -47 -24 -19 -16 -38 -29 -44 -29 -5 0 -28 -14 -49
-30 -22 -17 -48 -30 -57 -30 -10 0 -24 -8 -31 -18 -7 -10 -24 -22 -38 -25 -14
-3 -35 -15 -47 -27 -12 -11 -26 -20 -31 -20 -5 0 -27 -12 -48 -26 -21 -15 -52
-31 -68 -37 -16 -5 -37 -18 -46 -27 -10 -10 -31 -21 -48 -24 -16 -4 -39 -16
-50 -27 -12 -11 -35 -22 -50 -25 -16 -3 -42 -17 -57 -30 -16 -13 -40 -24 -54
-24 -13 0 -36 -10 -50 -23 -15 -13 -45 -29 -68 -36 -24 -6 -43 -16 -43 -20 0
-5 -10 -12 -22 -16 -13 -4 -26 -8 -30 -10 -5 -1 -14 -3 -22 -4 -8 0 -28 -12
-45 -27 -17 -14 -36 -24 -43 -23 -25 4 -73 -14 -86 -33 -9 -12 -26 -18 -49
-18 -23 0 -45 -9 -65 -25 -16 -14 -39 -25 -51 -26 -45 -1 -72 -10 -93 -30 -12
-11 -37 -21 -62 -22 -25 -2 -54 -12 -74 -27 -37 -28 -35 -27 -87 -29 -25 -1
-50 -10 -68 -24 -19 -16 -43 -24 -73 -25 -69 -3 -99 -12 -113 -32 -10 -15 -29
-20 -91 -23 -60 -3 -84 -9 -108 -27 -27 -20 -44 -23 -122 -24 -71 -1 -91 -4
-91 -15 0 -26 90 -63 161 -65 12 -1 32 -10 43 -20 22 -20 27 -22 93 -31 20 -2
55 -14 77 -26 22 -11 45 -18 50 -15 5 4 12 3 15 -2 2 -4 22 -9 42 -10 21 -2
54 -11 73 -22 31 -16 87 -29 151 -35 16 -1 90 -22 130 -36 14 -5 54 -11 90
-14 36 -3 88 -12 115 -19 81 -23 129 -30 270 -40 39 -3 81 -7 95 -10 104 -23
247 -40 315 -37 22 1 47 1 55 1 138 -4 644 0 678 5 26 4 61 9 77 10 17 2 46 6
65 10 19 3 51 8 70 10 19 2 35 4 35 5 0 1 32 3 70 5 89 6 134 13 249 40 34 8
75 15 93 15 33 0 139 24 184 41 15 6 44 12 65 15 62 6 123 20 136 32 13 10
126 37 140 34 4 -1 25 7 47 18 21 12 61 23 87 26 28 4 58 15 71 26 18 17 40
23 109 27 5 1 20 10 32 21 21 20 46 28 90 29 12 1 31 10 43 22 11 11 30 22 42
25 62 11 76 17 93 35 9 10 30 19 46 19 18 0 40 11 59 29 17 17 37 27 45 24 17
-6 76 16 69 27 -6 9 19 20 45 20 10 0 32 13 49 29 18 17 38 28 45 25 7 -3 25
7 41 21 15 15 37 28 48 31 27 5 67 32 67 45 0 6 7 9 15 6 8 -4 26 6 42 23 15
17 36 30 46 30 10 0 28 10 41 23 13 13 37 29 55 36 17 8 31 17 31 22 0 5 17
17 39 28 21 11 41 27 45 36 3 9 11 13 16 10 6 -4 23 7 39 24 16 17 33 31 39
31 5 0 24 12 40 28 17 15 47 38 67 52 20 14 50 37 66 53 16 15 33 27 37 27 4
0 32 24 63 53 31 28 84 77 118 107 97 86 151 139 151 150 0 6 4 10 9 10 12 0
81 69 81 81 0 5 6 12 13 15 8 3 40 37 72 77 32 40 65 79 72 87 7 8 24 28 37
44 14 15 28 37 31 47 4 11 10 19 15 19 5 0 18 17 29 38 11 20 32 48 45 61 14
12 24 27 21 31 -3 4 2 14 11 21 8 7 24 30 35 51 11 21 23 38 28 38 5 0 16 16
25 35 9 19 21 37 26 40 6 4 17 22 25 42 8 19 26 44 40 55 14 11 23 23 20 28
-3 5 3 17 13 27 10 10 24 32 31 50 7 18 24 39 37 48 13 8 24 23 24 33 0 10 9
25 20 35 11 9 20 26 20 36 0 11 10 28 23 38 31 26 87 99 87 115 1 15 34 58
103 130 26 27 47 54 47 58 0 5 11 17 25 28 14 11 25 23 25 26 0 11 139 146
150 146 5 0 10 7 10 15 0 8 4 15 10 15 5 0 22 11 37 24 74 66 101 85 125 91
14 4 31 17 38 30 7 13 18 21 24 19 20 -8 126 56 126 75 0 16 -9 18 -77 15 -43
-1 -83 2 -90 8 -7 5 -35 10 -62 11 -28 1 -51 4 -51 7 0 4 -308 8 -313 4z"/>
<path d="M20295 20861 c-2 -1 -30 -4 -62 -6 -32 -2 -71 -7 -88 -12 -16 -5 -60
-8 -97 -7 -58 2 -67 0 -71 -17 -6 -22 -1 -26 36 -33 15 -3 34 -12 43 -20 8 -9
27 -19 42 -23 15 -3 37 -17 49 -30 12 -12 29 -23 37 -23 9 0 28 -13 43 -30 14
-16 32 -30 39 -30 6 0 19 -11 28 -25 9 -14 20 -24 25 -22 16 4 231 -206 231
-227 0 -8 9 -18 20 -21 11 -3 20 -10 20 -16 0 -8 23 -36 83 -100 15 -16 27
-33 27 -37 0 -4 14 -22 30 -41 17 -18 30 -38 30 -43 0 -6 10 -23 23 -38 51
-64 72 -94 79 -111 8 -20 75 -117 95 -137 7 -7 13 -19 13 -27 0 -17 79 -135
91 -135 5 0 9 -7 9 -15 0 -8 14 -34 30 -57 17 -22 30 -46 30 -53 0 -6 10 -21
23 -32 12 -12 32 -36 45 -55 12 -18 34 -49 47 -68 13 -19 29 -45 34 -57 6 -12
19 -27 31 -33 11 -6 20 -16 20 -24 0 -7 10 -22 23 -33 20 -19 85 -93 132 -150
16 -20 93 -98 157 -160 7 -7 18 -18 24 -25 15 -17 73 -69 154 -138 35 -30 73
-65 85 -77 12 -13 26 -23 31 -23 4 0 17 -9 29 -19 55 -53 89 -81 106 -86 11
-4 19 -10 19 -15 0 -5 17 -19 37 -31 21 -13 45 -31 55 -41 10 -10 22 -18 27
-18 5 0 23 -13 41 -30 18 -16 36 -28 40 -25 5 3 18 -6 29 -21 11 -14 27 -27
35 -28 9 -1 26 -12 40 -25 13 -12 30 -24 37 -25 29 -6 49 -19 49 -31 0 -14 21
-25 48 -25 9 0 28 -11 42 -25 15 -14 36 -27 48 -30 11 -2 29 -12 40 -23 11
-11 34 -23 51 -27 17 -4 36 -15 41 -25 6 -11 26 -22 48 -26 20 -3 44 -15 53
-27 9 -11 31 -22 49 -24 18 -2 43 -13 56 -26 12 -12 37 -24 55 -25 17 -1 45
-14 61 -27 27 -23 36 -26 79 -30 8 0 28 -11 44 -23 27 -21 44 -27 73 -23 8 2
31 -9 51 -24 21 -14 57 -27 80 -30 23 -2 54 -13 70 -24 15 -11 50 -23 77 -26
27 -4 59 -13 72 -22 24 -15 29 -16 114 -33 27 -5 60 -16 76 -24 25 -13 59 -21
141 -32 19 -2 54 -11 78 -19 58 -20 116 -32 183 -39 30 -3 66 -9 80 -12 108
-25 165 -33 273 -39 42 -2 81 -6 85 -9 4 -2 31 -7 61 -11 30 -4 63 -9 75 -11
57 -12 656 -25 656 -14 0 3 64 5 143 6 129 1 197 6 267 19 14 3 36 8 50 10 14
3 59 8 100 10 111 8 157 14 245 35 44 10 107 22 139 26 33 3 64 7 70 8 39 8
82 19 91 25 6 3 13 6 18 7 4 1 8 2 10 4 1 1 18 4 37 6 37 4 75 11 75 14 0 1
15 3 33 6 18 2 43 10 55 18 19 13 54 21 122 29 11 2 31 9 45 17 14 8 28 15 33
16 4 1 8 3 10 4 1 1 13 3 27 4 44 4 78 16 94 31 8 8 32 17 53 20 87 12 164 49
149 73 -3 5 -45 9 -93 8 -79 -1 -89 1 -111 22 -19 20 -36 25 -104 28 -67 3
-86 8 -105 26 -15 14 -38 23 -66 24 -23 1 -42 3 -42 4 0 1 -11 2 -25 4 -14 1
-35 11 -48 24 -19 19 -74 30 -115 23 -5 -1 -22 10 -39 24 -16 14 -33 25 -36
26 -4 1 -24 2 -44 3 -22 1 -47 11 -60 23 -13 12 -43 24 -68 28 -24 4 -58 17
-75 29 -16 13 -41 22 -55 21 -14 -1 -39 9 -57 22 -18 13 -47 26 -65 30 -17 3
-47 17 -66 30 -19 12 -45 23 -57 23 -12 0 -32 9 -45 20 -13 11 -38 24 -56 29
-18 5 -47 19 -63 30 -16 11 -37 22 -47 24 -31 6 -58 20 -69 34 -5 7 -21 15
-34 18 -13 2 -35 12 -50 22 -26 18 -66 40 -156 86 -28 14 -57 32 -64 41 -7 9
-22 16 -33 16 -11 0 -33 11 -50 25 -16 14 -35 25 -42 25 -8 0 -26 10 -41 22
-16 12 -38 24 -49 25 -11 2 -34 17 -50 34 -16 16 -35 28 -41 25 -7 -2 -26 9
-41 25 -18 18 -36 28 -46 25 -11 -2 -24 4 -31 15 -8 10 -29 25 -48 33 -19 8
-45 26 -58 40 -13 14 -27 23 -31 21 -4 -3 -20 7 -34 20 -15 14 -33 25 -40 25
-7 0 -30 14 -51 30 -21 17 -44 30 -51 30 -7 0 -17 6 -21 14 -4 7 -24 21 -43
31 -19 10 -41 26 -48 36 -7 11 -24 19 -37 19 -13 0 -30 8 -37 19 -7 10 -27 25
-43 33 -17 9 -38 25 -48 36 -11 11 -24 19 -30 16 -7 -2 -27 10 -45 27 -18 17
-39 29 -46 26 -7 -3 -19 5 -26 18 -7 13 -24 26 -38 30 -14 3 -41 20 -59 36
-19 16 -39 29 -44 29 -6 0 -20 11 -31 25 -10 13 -22 24 -26 24 -19 -3 -33 3
-58 26 -15 14 -35 25 -45 25 -10 0 -24 8 -31 19 -7 10 -24 22 -37 26 -13 4
-35 18 -48 31 -13 13 -28 25 -33 25 -6 1 -13 2 -17 3 -5 0 -24 13 -44 29 -20
15 -40 27 -46 27 -5 0 -18 9 -27 19 -10 11 -28 22 -41 25 -14 4 -35 17 -49 31
-14 14 -33 25 -42 25 -9 0 -29 11 -46 25 -16 14 -35 25 -41 25 -7 0 -25 11
-41 25 -16 14 -35 25 -42 25 -7 0 -25 11 -41 24 -15 13 -39 27 -53 31 -14 4
-40 20 -59 36 -18 15 -39 25 -45 23 -7 -3 -24 6 -39 20 -14 13 -37 28 -49 31
-13 4 -32 15 -43 25 -11 9 -32 20 -46 23 -14 4 -36 16 -49 27 -13 11 -35 23
-49 27 -14 3 -39 17 -54 30 -16 12 -37 23 -47 23 -10 0 -32 11 -48 25 -16 13
-44 26 -62 27 -18 1 -38 11 -45 21 -7 10 -32 23 -55 28 -23 5 -50 19 -59 30
-9 11 -30 20 -51 22 -22 1 -42 11 -55 25 -12 13 -37 25 -60 29 -22 3 -44 12
-48 20 -11 18 -56 37 -83 34 -12 -1 -35 9 -52 23 -19 17 -42 26 -63 26 -21 0
-42 9 -59 25 -17 16 -38 25 -65 26 -23 1 -56 12 -77 27 -23 15 -54 25 -82 26
-25 2 -54 9 -63 18 -30 26 -56 35 -108 37 -32 1 -57 9 -70 21 -19 17 -108 36
-151 31 -11 -1 -32 8 -47 19 -15 12 -34 19 -42 16 -8 -3 -15 -2 -15 3 0 4 -25
7 -55 7 -30 -1 -55 2 -55 5 0 3 -10 5 -22 4 -13 -1 -39 6 -59 16 -19 9 -66 20
-105 22 -38 3 -69 6 -69 7 0 1 -34 4 -75 6 -115 7 -134 9 -145 16 -22 14 -418
32 -430 19z"/>
<path d="M18417 20322 c-13 -32 -26 -66 -32 -82 -1 -3 -7 -18 -13 -33 -7 -16
-12 -31 -12 -34 0 -3 -6 -19 -14 -36 -8 -18 -27 -61 -41 -97 -48 -116 -152
-337 -165 -350 -3 -3 -18 -30 -34 -60 -101 -192 -345 -549 -461 -676 -5 -6
-39 -44 -75 -85 -65 -75 -295 -307 -361 -365 -33 -29 -233 -193 -290 -237 -13
-11 -42 -31 -64 -45 -22 -15 -42 -29 -45 -32 -20 -22 -275 -179 -405 -250
-111 -61 -357 -180 -371 -180 -3 0 -24 -8 -47 -19 -99 -44 -413 -151 -487
-165 -3 -1 -9 -4 -15 -7 -5 -4 -30 -10 -55 -14 -25 -4 -49 -10 -55 -13 -5 -3
-16 -7 -25 -8 -8 -1 -49 -9 -90 -19 -41 -9 -86 -19 -100 -21 -14 -2 -65 -11
-115 -19 -49 -8 -110 -17 -135 -20 -25 -3 -54 -7 -65 -9 -11 -3 -28 -5 -37 -5
-10 -1 -18 -7 -18 -15 0 -16 221 -127 445 -226 28 -12 64 -28 80 -35 25 -11
104 -43 270 -110 11 -5 23 -9 27 -9 3 -1 10 -4 14 -8 4 -5 14 -8 22 -8 8 0 28
-6 45 -14 18 -8 66 -26 107 -41 41 -14 87 -33 101 -40 14 -8 29 -12 32 -8 4 3
12 1 19 -4 7 -6 29 -14 48 -18 19 -4 41 -12 48 -17 6 -6 12 -7 12 -3 0 4 7 1
17 -6 9 -8 17 -13 17 -11 1 2 8 1 16 -1 73 -22 107 -31 115 -32 6 0 15 -3 20
-6 6 -4 24 -10 40 -14 17 -5 36 -10 43 -12 6 -1 18 -5 25 -6 6 -2 26 -7 42
-11 17 -4 37 -10 45 -13 8 -4 19 -5 24 -4 4 1 14 -3 21 -9 7 -6 17 -10 21 -9
5 2 27 -3 49 -9 22 -6 51 -13 65 -16 14 -2 26 -5 28 -7 3 -2 6 -3 72 -17 68
-15 85 -19 135 -31 36 -9 52 -12 123 -26 54 -11 79 -16 107 -20 17 -2 75 -13
130 -23 55 -11 123 -24 150 -28 28 -4 59 -8 70 -10 160 -24 390 -50 525 -58
30 -2 80 -7 110 -10 88 -12 239 -17 480 -18 209 0 307 4 470 18 36 4 92 8 125
10 133 9 231 19 291 28 45 6 111 15 157 21 18 2 77 11 132 20 55 9 111 18 125
20 14 2 25 4 25 5 0 1 14 4 30 6 27 3 139 24 205 38 22 5 45 10 145 30 11 3
52 12 90 21 39 10 77 18 85 20 8 2 16 4 18 5 1 2 10 3 20 5 9 1 24 4 32 8 8 3
35 10 60 16 25 5 72 17 105 26 33 10 67 19 75 20 8 2 17 4 20 6 3 1 10 3 15 4
6 1 17 5 25 8 13 5 80 24 115 33 6 1 66 21 135 44 68 23 129 43 135 45 17 3
48 16 80 30 17 8 44 17 60 21 17 4 35 10 40 14 6 4 35 15 65 25 30 10 75 27
100 39 25 11 47 20 50 21 3 0 10 3 15 6 6 4 25 10 43 14 17 3 32 11 32 16 0 5
3 8 8 7 8 -1 24 5 89 33 23 11 44 19 47 19 3 0 36 15 73 33 38 18 73 35 78 37
6 2 42 19 82 37 39 18 76 33 82 33 5 0 11 3 13 8 3 7 100 57 131 66 17 5 34
33 25 41 -5 5 -63 15 -118 20 -44 5 -99 13 -170 26 -30 6 -66 12 -80 14 -24 3
-143 29 -185 39 -139 35 -272 72 -315 89 -14 5 -89 30 -100 32 -3 1 -12 5 -20
8 -8 4 -51 20 -95 36 -44 16 -102 39 -130 51 -27 11 -68 29 -90 38 -66 28
-356 176 -410 210 -27 18 -61 37 -75 44 -27 13 -332 217 -340 227 -3 3 -48 39
-100 80 -177 139 -398 348 -540 511 -30 35 -65 75 -78 89 -12 14 -42 51 -65
81 -23 30 -44 57 -47 60 -6 6 -81 108 -101 136 -8 12 -40 59 -71 105 -32 46
-58 89 -58 96 0 7 -3 13 -8 13 -7 0 -40 55 -97 158 -11 21 -22 39 -25 42 -7 6
-125 241 -126 249 0 3 -12 32 -27 63 -24 49 -47 102 -52 118 -1 3 -7 19 -14
35 -7 17 -22 55 -33 85 -23 65 -30 83 -51 131 l-16 37 -114 1 -114 0 -16 -37z"/>
<path d="M4082 15615 c-9 -14 -9 -6393 -1 -6407 8 -13 1784 -16 1796 -4 4 4 6
629 5 1389 l-1 1382 26 -45 c15 -25 32 -51 39 -58 7 -6 16 -21 19 -32 3 -11
11 -20 16 -20 5 0 8 -3 7 -7 -1 -5 42 -75 96 -158 54 -82 113 -172 131 -200
18 -27 60 -92 94 -143 33 -51 61 -98 61 -103 0 -5 5 -9 10 -9 6 0 10 -4 10 -9
0 -5 31 -55 68 -112 90 -136 184 -280 197 -301 5 -10 71 -110 145 -223 74
-114 140 -214 145 -223 6 -9 31 -48 56 -87 25 -38 47 -74 48 -80 2 -5 16 -26
32 -46 16 -20 29 -39 29 -42 0 -2 49 -78 108 -168 111 -168 159 -241 177 -271
39 -66 131 -204 137 -206 4 -2 8 -7 8 -12 0 -8 59 -102 80 -127 6 -7 15 -24
22 -38 6 -14 15 -25 20 -25 4 0 8 -7 8 -15 0 -8 8 -15 18 -16 23 -1 2083 -1
2100 0 6 1 12 6 12 13 0 13 -51 91 -62 96 -5 2 -8 10 -8 18 0 8 -4 14 -8 14
-5 0 -14 10 -21 23 -17 34 -96 152 -111 167 -3 3 -9 13 -15 22 -13 21 -136
203 -252 373 -49 72 -156 229 -238 350 -190 281 -308 455 -359 529 -23 32 -45
66 -51 75 -31 49 -101 146 -107 149 -5 2 -8 7 -8 12 0 4 -40 67 -90 140 -49
73 -90 136 -90 140 0 5 -4 10 -8 12 -7 3 -111 152 -137 196 -5 9 -13 19 -16
22 -3 3 -52 75 -109 160 -57 85 -124 184 -148 220 -57 82 -190 279 -296 435
-45 66 -84 122 -88 123 -5 2 -8 9 -8 16 0 11 174 282 280 436 17 25 84 126
149 225 302 458 740 1121 749 1130 5 6 11 15 13 20 2 6 44 71 94 145 49 74 94
143 100 152 5 9 42 63 80 120 39 57 72 108 74 113 2 6 21 33 43 62 21 29 38
55 38 58 0 4 11 21 25 39 14 18 25 38 25 44 0 7 5 12 10 12 6 0 14 8 18 18 4
9 83 131 175 270 117 177 165 257 158 265 -7 9 -264 12 -1036 12 l-1028 0 -37
-60 c-21 -33 -42 -64 -47 -70 -4 -5 -14 -21 -21 -35 -15 -30 -21 -41 -157
-255 -60 -93 -136 -214 -169 -268 -34 -54 -68 -108 -76 -122 -8 -13 -41 -65
-73 -117 -32 -51 -80 -127 -107 -168 -27 -41 -54 -84 -59 -95 -6 -11 -51 -83
-101 -160 -50 -77 -93 -147 -97 -155 -11 -25 -57 -95 -65 -98 -5 -2 -8 -8 -8
-12 0 -10 -222 -367 -332 -534 -21 -32 -38 -60 -38 -62 0 -2 -24 -42 -52 -87
-29 -46 -58 -92 -65 -103 -7 -10 -33 -53 -59 -94 -25 -41 -50 -77 -55 -78 -5
-2 -7 -7 -5 -11 3 -3 -4 -18 -14 -31 -19 -25 -19 -2 -19 1284 1 949 -2 1311
-10 1319 -15 15 -1780 17 -1789 2z"/>
<path d="M11826 14322 c-4 -3 -52 -7 -109 -9 -108 -3 -202 -11 -227 -20 -8 -3
-31 -6 -50 -8 -40 -3 -65 -8 -170 -30 -41 -9 -80 -17 -87 -19 -7 -1 -16 -5
-19 -9 -4 -4 -15 -7 -25 -7 -23 0 -213 -64 -277 -93 -26 -12 -49 -21 -52 -22
-3 0 -35 -15 -73 -33 -37 -17 -72 -32 -77 -32 -6 0 -10 -4 -10 -10 0 -5 -4 -9
-8 -7 -11 3 -227 -126 -293 -176 -31 -23 -72 -53 -90 -67 -143 -107 -338 -311
-462 -480 -91 -125 -190 -295 -260 -450 -32 -69 -87 -213 -92 -237 -2 -14 -9
-30 -14 -37 -6 -7 -8 -16 -4 -19 3 -4 0 -13 -7 -22 -7 -8 -10 -15 -7 -15 3 0
-2 -21 -10 -47 -8 -27 -16 -55 -18 -63 -2 -8 -9 -37 -15 -65 -7 -27 -14 -60
-15 -72 -2 -11 -5 -29 -9 -40 -3 -10 -8 -38 -12 -63 -3 -25 -8 -56 -10 -70
-13 -84 -19 -202 -19 -405 0 -241 11 -417 30 -495 3 -14 8 -41 11 -60 5 -40 9
-56 25 -120 14 -59 16 -68 29 -115 7 -22 11 -48 11 -57 0 -10 4 -18 8 -18 5 0
11 -14 14 -30 7 -34 14 -64 17 -67 2 -2 3 -6 5 -10 1 -5 6 -19 12 -33 5 -14
20 -54 33 -90 13 -36 29 -68 34 -72 6 -4 8 -8 4 -8 -22 0 221 -430 244 -430 4
0 8 -5 8 -10 0 -9 55 -84 129 -175 61 -74 275 -277 366 -346 236 -178 507
-320 753 -395 31 -10 59 -18 62 -19 3 -1 19 -5 35 -9 17 -4 37 -10 45 -13 8
-3 26 -8 40 -10 45 -8 55 -10 70 -16 8 -3 33 -8 55 -12 22 -3 54 -8 70 -11 17
-3 41 -7 55 -8 14 -2 39 -6 55 -9 125 -28 684 -27 729 0 5 4 26 8 45 9 20 2
47 5 61 8 14 3 43 8 65 12 22 4 45 10 50 14 6 4 19 6 30 4 11 -1 22 0 25 5 3
4 28 13 55 19 53 13 61 15 85 25 39 15 96 31 103 29 4 -1 7 3 7 8 0 6 6 10 14
10 8 0 27 5 43 12 15 6 31 11 36 10 4 -1 7 3 7 8 0 6 5 10 11 10 11 0 107 47
181 88 89 50 183 112 258 168 l56 42 23 -62 c31 -78 74 -179 103 -235 l23 -45
663 1 c364 0 666 3 669 7 12 12 10 4946 -1 4962 -9 12 -48 15 -226 14 -118 0
-222 -1 -230 -1 -8 0 -150 0 -315 0 -165 0 -307 0 -315 0 -8 0 -52 0 -96 1
-79 2 -124 -10 -124 -31 0 -5 -20 -51 -44 -102 -24 -50 -58 -123 -76 -162 -18
-38 -34 -72 -35 -73 -2 -2 -45 26 -96 63 -52 37 -125 85 -164 108 -38 23 -71
45 -73 49 -2 5 -8 8 -13 8 -5 0 -60 24 -122 54 -61 29 -134 61 -162 71 -27 10
-56 23 -62 28 -7 5 -13 6 -13 2 0 -4 -6 -3 -12 3 -7 5 -29 13 -48 17 -19 4
-39 10 -45 13 -5 3 -16 7 -25 8 -8 2 -22 5 -30 7 -8 2 -34 8 -58 12 -23 4 -44
11 -47 14 -2 4 -18 6 -34 5 -17 -1 -31 2 -31 8 0 5 -15 8 -33 7 -18 -2 -38 0
-44 4 -24 15 -455 42 -467 29z m486 -1555 c21 -2 41 -6 44 -10 4 -4 20 -7 35
-7 15 0 31 -5 34 -10 4 -6 11 -8 16 -4 5 3 15 1 22 -4 7 -5 27 -13 46 -17 102
-22 319 -155 404 -248 21 -23 58 -69 83 -102 24 -33 47 -64 52 -70 15 -20 92
-180 96 -200 3 -11 13 -47 24 -80 49 -151 61 -398 27 -561 -82 -393 -302 -662
-656 -803 -42 -17 -85 -32 -95 -34 -11 -1 -24 -6 -30 -9 -5 -4 -19 -5 -30 -4
-10 2 -23 0 -29 -4 -21 -16 -308 -30 -345 -17 -8 3 -37 8 -65 12 -210 25 -419
129 -575 285 -41 41 -82 84 -90 96 -47 64 -61 86 -94 149 -31 61 -57 119 -60
135 -1 3 -4 10 -7 15 -4 6 -10 24 -14 40 -5 17 -10 37 -12 45 -2 8 -6 25 -8
37 -2 12 -6 27 -10 33 -12 19 -19 112 -18 255 0 152 7 231 23 250 5 6 7 14 4
17 -8 9 35 144 73 227 92 203 265 386 453 478 61 30 181 76 205 78 11 1 27 5
35 8 28 10 75 19 118 22 24 2 46 5 48 8 5 5 212 0 296 -6z"/>
<path d="M23677 14324 c-4 -4 -53 -8 -109 -10 -111 -3 -154 -7 -263 -24 -38
-6 -81 -12 -95 -14 -14 -2 -32 -6 -40 -9 -8 -3 -42 -10 -75 -17 -33 -6 -64
-13 -70 -14 -53 -14 -103 -28 -115 -33 -8 -3 -19 -7 -25 -9 -25 -6 -154 -54
-190 -70 -22 -10 -42 -18 -45 -19 -9 -2 -125 -56 -140 -65 -8 -4 -48 -25 -87
-46 -40 -21 -73 -42 -73 -48 0 -5 -3 -7 -6 -3 -3 3 -43 -20 -88 -51 -247 -171
-457 -373 -613 -587 -55 -76 -162 -247 -160 -255 1 -3 -8 -18 -19 -35 -12 -16
-39 -68 -61 -115 -61 -128 -71 -152 -79 -185 -4 -16 -9 -34 -13 -40 -3 -5 -6
-12 -7 -15 0 -3 -3 -12 -7 -20 -7 -19 -31 -93 -32 -100 0 -3 -3 -9 -6 -15 -4
-5 -10 -30 -14 -55 -4 -25 -10 -49 -14 -55 -3 -5 -6 -17 -6 -25 0 -8 -3 -19
-6 -25 -4 -5 -10 -32 -13 -58 -4 -27 -10 -59 -13 -70 -2 -12 -6 -36 -8 -54 -1
-17 -6 -36 -9 -41 -6 -11 -10 -36 -25 -207 -8 -89 -6 -491 2 -530 3 -11 8 -53
11 -94 4 -41 10 -79 13 -84 4 -6 8 -26 9 -46 5 -51 17 -115 40 -201 8 -31 26
-106 29 -120 2 -8 4 -16 5 -17 2 -2 3 -6 4 -10 7 -36 77 -228 113 -308 41 -93
124 -250 177 -333 13 -21 24 -40 25 -44 0 -5 8 -16 16 -25 26 -30 95 -122 95
-127 0 -3 12 -19 28 -35 15 -16 34 -38 43 -50 39 -52 240 -251 310 -306 120
-96 239 -178 341 -234 59 -33 255 -131 261 -131 3 0 26 -10 53 -22 27 -12 53
-21 57 -20 5 1 23 -4 40 -12 33 -15 99 -37 120 -40 7 -1 17 -4 22 -8 6 -3 30
-9 55 -13 25 -4 50 -10 55 -13 6 -4 15 -7 20 -8 6 -1 37 -7 70 -14 63 -12 101
-18 150 -24 17 -2 41 -6 55 -10 51 -13 120 -17 350 -18 225 -1 363 6 385 21 6
3 24 6 40 5 17 -1 35 2 40 7 6 4 20 8 30 7 11 0 40 5 65 11 25 6 54 14 65 16
11 2 27 6 35 8 8 2 29 7 45 11 17 4 37 10 45 13 18 8 15 7 70 22 25 7 50 16
55 19 6 4 12 7 15 8 5 1 32 11 65 23 11 5 23 9 28 10 12 2 230 117 278 146 91
57 224 149 234 163 13 16 16 11 75 -133 23 -55 45 -109 50 -120 5 -11 14 -32
20 -47 5 -16 17 -28 27 -29 10 0 310 -1 666 -1 476 -1 651 2 660 11 8 8 12
632 12 2473 1 2368 1 2462 -17 2480 -15 15 -71 25 -110 19 -14 -2 -68 -2 -210
-2 -82 0 -154 0 -160 0 -7 -1 -44 -1 -83 0 -38 0 -79 0 -90 0 -22 0 -130 0
-155 0 -105 0 -439 0 -450 -1 -18 -1 -50 -27 -50 -40 0 -5 -13 -37 -29 -71
-92 -194 -114 -243 -114 -254 0 -15 -4 -13 -97 57 -87 66 -260 174 -260 163 0
-5 -4 -3 -8 2 -9 13 -125 71 -134 67 -5 -1 -8 3 -8 10 0 6 -3 8 -7 5 -3 -4
-11 -3 -18 3 -29 24 -288 115 -317 111 -10 -1 -18 2 -18 7 0 6 -24 13 -52 17
-29 4 -57 10 -63 13 -5 4 -19 7 -30 7 -11 1 -27 5 -36 9 -9 4 -20 6 -25 4 -5
-1 -27 2 -49 6 -51 10 -99 15 -205 21 -47 2 -121 7 -166 10 -44 3 -83 2 -87
-1z m478 -1558 c22 -2 58 -10 80 -16 22 -6 48 -11 57 -11 10 0 20 -4 23 -10 4
-5 14 -9 24 -9 10 0 36 -8 57 -17 47 -20 44 -19 72 -28 12 -4 22 -11 22 -16 0
-5 7 -9 16 -9 46 0 248 -168 330 -275 55 -73 115 -174 130 -220 2 -5 17 -48
34 -95 16 -47 30 -94 30 -106 0 -11 3 -24 7 -27 10 -10 13 -56 16 -229 5 -214
-23 -354 -104 -524 -105 -220 -270 -386 -489 -491 -41 -19 -79 -36 -85 -38 -5
-1 -18 -5 -27 -8 -44 -17 -54 -20 -68 -23 -8 -2 -26 -6 -40 -9 -125 -28 -307
-34 -425 -16 -38 6 -79 12 -90 12 -10 0 -25 5 -32 10 -6 6 -17 8 -22 5 -5 -4
-12 -2 -15 3 -4 7 -42 18 -71 21 -23 2 -215 110 -269 150 -158 120 -293 303
-341 463 -1 4 -4 9 -5 12 -1 3 -3 8 -4 13 -1 4 -4 12 -7 17 -6 9 -18 50 -25
85 -26 125 -35 199 -36 295 0 106 12 224 23 231 4 2 6 11 2 19 -3 8 -2 23 3
33 9 21 8 16 24 85 7 31 17 57 22 57 4 0 7 3 6 8 -2 13 53 135 85 187 27 45
113 152 149 187 71 71 226 175 251 170 4 -1 7 2 7 6 0 10 113 61 150 68 8 1
24 5 35 8 76 21 106 27 148 30 27 2 51 6 54 9 5 6 236 1 298 -7z"/>
<path d="M29795 14320 c-11 -4 -62 -6 -113 -5 -51 0 -96 -3 -98 -7 -3 -5 -20
-8 -37 -8 -48 2 -151 -12 -162 -21 -6 -4 -23 -6 -38 -5 -15 2 -30 0 -32 -4 -3
-4 -31 -11 -62 -15 -32 -4 -63 -11 -70 -17 -7 -5 -17 -7 -22 -4 -5 4 -12 2
-15 -3 -3 -4 -24 -11 -47 -15 -23 -4 -47 -10 -53 -14 -6 -4 -13 -7 -16 -7 -3
-1 -30 -9 -60 -20 -30 -11 -57 -20 -60 -20 -31 -8 -187 -79 -306 -141 -212
-109 -389 -239 -579 -429 -115 -114 -132 -134 -272 -320 -5 -5 -20 -28 -34
-50 -14 -22 -43 -67 -64 -100 -22 -33 -40 -62 -40 -65 -1 -3 -9 -21 -20 -40
-11 -19 -18 -38 -17 -42 1 -5 -2 -8 -8 -8 -5 0 -10 -4 -10 -10 0 -5 -14 -40
-32 -77 -17 -38 -32 -70 -32 -73 -1 -3 -5 -11 -9 -17 -5 -7 -6 -17 -3 -22 4
-5 2 -11 -2 -13 -7 -2 -68 -157 -73 -186 -1 -4 -3 -11 -5 -17 -30 -100 -73
-277 -80 -330 -2 -11 -8 -51 -14 -90 -6 -38 -13 -92 -16 -120 -8 -69 -11 -605
-3 -605 3 0 6 -21 7 -47 2 -70 13 -156 22 -168 4 -5 6 -21 4 -34 -3 -13 0 -29
5 -35 4 -6 12 -33 16 -61 5 -27 9 -52 10 -55 1 -3 7 -23 14 -45 7 -22 15 -53
18 -70 3 -16 11 -42 19 -58 8 -15 12 -32 9 -37 -3 -5 -1 -11 5 -15 5 -3 10
-12 10 -20 0 -8 5 -26 12 -42 6 -15 12 -32 14 -38 7 -30 73 -183 114 -266 216
-434 561 -798 985 -1041 100 -57 271 -137 286 -134 3 0 12 -4 20 -10 11 -9 68
-32 99 -39 3 -1 18 -7 33 -13 16 -7 37 -12 47 -12 10 0 22 -5 25 -10 4 -6 12
-10 18 -9 7 1 19 0 27 -4 13 -5 30 -9 90 -24 8 -2 24 -5 35 -6 12 -2 25 -6 30
-9 14 -8 107 -22 128 -19 9 1 17 -2 17 -7 0 -5 17 -9 38 -10 20 -1 75 -7 121
-14 104 -17 575 -16 641 1 25 7 61 13 80 15 19 2 36 5 38 6 4 4 14 6 75 14 31
5 57 12 57 15 0 4 10 7 23 6 12 -1 27 2 34 7 7 5 17 7 22 4 5 -4 12 -2 16 4 3
5 16 10 29 10 12 0 26 3 30 7 4 5 11 8 14 9 13 1 107 32 142 47 34 14 58 23
72 26 20 6 245 125 259 137 8 8 19 14 23 14 10 0 183 117 214 144 26 23 30 20
61 -54 13 -30 29 -68 36 -85 7 -16 17 -41 23 -55 33 -81 47 -106 61 -114 18
-11 1318 -12 1329 -2 5 6 18 2932 13 3021 -5 99 -5 128 2 132 4 2 5 9 1 14 -3
5 -5 61 -4 124 0 63 1 123 1 133 0 9 -1 355 -1 767 -1 436 -5 757 -10 765 -8
13 -94 15 -645 16 l-636 1 -20 -28 c-10 -15 -19 -30 -19 -34 0 -3 -17 -43 -39
-88 -83 -175 -94 -201 -94 -214 0 -18 -4 -17 -50 21 -79 64 -233 161 -342 216
-61 30 -113 59 -116 63 -3 5 -9 8 -13 7 -4 -1 -39 12 -79 28 -93 38 -111 45
-117 47 -79 24 -97 30 -105 35 -5 4 -18 6 -27 5 -10 -2 -18 0 -18 5 0 4 -24
11 -52 14 -29 4 -57 11 -63 16 -6 5 -20 7 -30 6 -11 -2 -25 1 -31 6 -7 5 -16
8 -20 6 -5 -1 -31 2 -59 6 -123 21 -447 38 -480 26z m500 -1554 c22 -2 58 -10
80 -16 22 -6 49 -12 60 -14 11 -2 22 -5 25 -6 3 -2 10 -4 15 -5 22 -5 79 -29
153 -65 158 -76 319 -225 409 -380 21 -35 38 -67 38 -70 1 -3 8 -18 17 -35 22
-42 75 -202 82 -250 4 -22 9 -58 12 -80 2 -22 7 -56 10 -75 7 -53 8 -141 0
-178 -3 -17 -8 -51 -11 -75 -12 -119 -45 -228 -110 -362 -53 -108 -56 -112
-124 -197 -55 -71 -134 -143 -211 -195 -71 -48 -203 -113 -221 -109 -3 0 -12
-4 -20 -10 -8 -6 -27 -15 -44 -19 -16 -5 -37 -10 -45 -12 -126 -34 -333 -44
-465 -23 -70 11 -108 18 -112 19 -2 1 -5 1 -8 1 -3 1 -24 8 -47 16 -24 9 -47
17 -53 18 -22 6 -73 29 -130 58 -185 94 -351 266 -440 453 -16 33 -34 71 -41
85 -6 14 -15 41 -20 60 -10 43 -9 42 -17 60 -4 8 -14 51 -23 95 -17 84 -26
381 -12 401 4 5 10 28 12 50 16 119 101 327 181 438 56 79 164 189 226 231 24
17 50 36 57 43 7 6 19 12 26 12 8 0 19 7 26 15 7 9 15 13 18 11 3 -3 17 3 31
13 14 10 31 20 36 21 14 3 25 7 60 21 17 7 35 13 40 14 6 1 12 3 15 5 3 1 14
4 25 6 11 2 40 8 65 15 25 6 62 13 83 14 21 2 41 6 44 9 6 6 244 0 308 -8z"/>
<path d="M18533 14307 c-3 -5 -15 -7 -27 -5 -19 4 -127 -9 -226 -27 -114 -21
-146 -29 -156 -36 -6 -5 -19 -7 -28 -3 -9 3 -16 1 -16 -5 0 -6 -9 -11 -19 -11
-11 0 -32 -5 -48 -12 -15 -7 -32 -13 -38 -13 -5 -1 -23 -7 -38 -13 -83 -35
-133 -57 -137 -61 -3 -4 -12 -7 -20 -9 -23 -5 -205 -108 -279 -158 -101 -69
-148 -108 -243 -200 -49 -47 -88 -79 -88 -71 0 7 -13 39 -29 70 -16 31 -27 57
-25 57 2 0 -5 17 -16 37 -11 21 -20 43 -20 50 0 7 -5 13 -11 13 -6 0 -9 7 -5
15 3 8 1 15 -4 15 -6 0 -10 4 -10 10 0 5 -17 44 -37 87 -21 43 -38 81 -38 85
0 4 -8 16 -17 27 -16 19 -33 20 -617 19 -445 0 -602 -3 -609 -11 -11 -14 -11
-4942 0 -4953 9 -9 1716 -10 1725 -1 3 4 7 624 9 1379 1 755 5 1400 8 1433 4
51 12 103 29 185 12 59 45 149 84 227 50 100 145 215 217 261 65 42 124 72
141 72 8 0 15 4 15 8 0 5 6 9 13 10 6 0 30 6 52 12 22 7 51 13 65 15 14 2 39
6 55 10 26 5 211 10 225 5 5 -1 15 -4 65 -15 11 -3 35 -8 53 -11 18 -3 35 -10
38 -15 3 -5 12 -9 19 -9 23 0 117 -65 156 -107 45 -50 109 -155 124 -203 11
-37 25 -90 29 -110 2 -14 5 -25 6 -25 2 0 8 -39 14 -96 2 -20 7 -56 12 -80 4
-24 8 -695 8 -1491 1 -795 4 -1450 8 -1454 8 -8 1715 -10 1723 -3 9 10 7 3271
-3 3281 -5 5 -7 29 -5 54 3 25 1 53 -3 62 -4 10 -9 31 -10 47 -7 76 -28 185
-36 185 -4 0 -6 11 -4 25 3 13 1 27 -4 30 -4 2 -11 25 -14 50 -4 24 -11 47
-16 50 -5 3 -7 14 -5 25 2 11 0 20 -5 20 -4 0 -11 18 -15 40 -4 22 -11 40 -16
40 -5 0 -8 3 -7 8 1 4 -4 23 -11 42 -8 19 -15 37 -15 40 -3 10 -96 195 -109
214 -6 11 -32 52 -56 90 -63 101 -180 244 -264 322 -78 73 -245 201 -267 206
-8 2 -22 10 -31 18 -37 33 -283 146 -371 171 -55 16 -50 14 -70 23 -10 5 -25
6 -33 2 -8 -3 -15 -1 -15 4 0 6 -13 10 -28 10 -16 0 -32 3 -36 7 -4 4 -17 8
-29 8 -12 1 -29 4 -37 8 -19 7 -91 16 -155 18 -27 1 -54 4 -60 8 -15 9 -356 7
-362 -2z"/>
<path d="M8858 8259 c-9 -6 -11 -38 -9 -165 l1 -50 178 1 177 1 0 -454 c0
-250 3 -459 7 -465 7 -11 215 -13 226 -2 3 3 6 211 6 463 l0 457 165 -1 c91 0
172 1 179 4 8 3 12 33 12 102 0 68 -4 101 -12 107 -15 9 -915 11 -930 2z"/>
<path d="M11047 8263 c-3 -2 -31 -5 -62 -6 l-57 -2 0 -563 c0 -310 3 -566 6
-570 7 -6 214 -5 225 2 3 2 6 87 6 188 l-1 183 101 -3 c55 -2 102 -8 103 -13
2 -5 9 -15 16 -22 7 -6 45 -50 86 -97 79 -90 114 -129 176 -198 l39 -43 85 0
c165 -2 180 0 180 17 0 12 -179 224 -313 369 -18 20 -18 20 10 26 69 14 169
92 195 150 7 16 16 29 20 29 11 0 30 91 32 155 5 177 -106 328 -279 378 -44
12 -158 20 -265 17 -19 -1 -42 -1 -50 -1 -82 2 -184 0 -187 -3 -3 -2 -17 0
-33 4 -16 4 -31 6 -33 3z m385 -227 c122 -3 164 -16 193 -60 25 -38 41 -131
24 -142 -5 -3 -7 -9 -4 -13 2 -5 -6 -24 -18 -42 -37 -56 -82 -66 -286 -65
l-176 1 0 163 0 163 62 -2 c35 -1 66 1 69 4 4 4 11 4 15 1 5 -3 59 -6 121 -8z"/>
<path d="M14763 8262 c-70 -2 -83 -5 -84 -20 -4 -83 -1 -1113 3 -1117 7 -8
207 -9 215 -1 3 3 6 108 6 232 0 140 4 238 11 258 19 53 46 84 90 106 42 20
116 27 130 13 4 -5 11 -8 14 -8 33 -2 75 -53 89 -108 3 -12 7 -127 8 -255 1
-128 5 -235 8 -239 9 -8 193 -6 208 2 14 9 10 515 -5 560 -21 66 -56 132 -87
166 -30 32 -84 68 -114 75 -97 25 -148 25 -240 1 -24 -7 -72 -37 -89 -56 -20
-22 -42 -29 -30 -10 4 7 7 95 8 196 1 138 -2 187 -12 195 -7 6 -15 8 -19 5 -3
-4 -11 -3 -17 1 -6 4 -48 6 -93 4z"/>
<path d="M16569 8256 c-7 -5 -3 -1128 3 -1132 12 -8 193 -8 205 -1 6 4 9 92 9
224 -1 229 4 267 46 326 31 43 112 77 157 65 20 -5 42 -10 50 -10 25 -2 59
-39 76 -81 13 -33 16 -83 16 -279 1 -148 4 -240 11 -244 13 -8 198 -7 207 1
13 14 8 498 -6 560 -44 194 -199 290 -407 251 -41 -8 -116 -50 -129 -72 -4 -8
-11 -14 -15 -14 -4 0 -7 91 -7 202 l0 203 -107 1 c-60 1 -109 1 -109 0z"/>
<path d="M18774 8249 c-8 -14 -2 -769 7 -769 5 0 9 -12 9 -26 0 -14 14 -56 32
-93 39 -83 131 -176 213 -216 60 -30 60 -30 245 -30 l185 0 59 30 c75 38 159
123 198 198 50 100 57 165 57 554 0 313 -2 352 -16 357 -17 7 -191 6 -208 -1
-8 -2 -11 -107 -10 -341 0 -185 -1 -341 -4 -347 -3 -5 -7 -23 -7 -40 -1 -16
-7 -43 -14 -60 -6 -16 -12 -32 -13 -35 0 -3 -16 -22 -35 -42 -74 -80 -217 -98
-339 -42 -55 25 -106 101 -120 178 -3 17 -7 186 -8 376 -2 190 -4 348 -4 351
-1 10 -221 8 -227 -2z m787 -842 c-10 -9 -11 -8 -5 6 3 10 9 15 12 12 3 -3 0
-11 -7 -18z"/>
<path d="M24259 8252 c-7 -33 -4 -1124 3 -1128 8 -5 97 -7 183 -5 l30 1 0 218
c-1 242 7 289 60 348 16 19 41 37 55 40 70 14 91 16 107 9 10 -5 23 -9 28 -9
26 -3 57 -30 76 -67 19 -38 20 -57 20 -285 0 -175 3 -245 11 -250 7 -4 25 -7
40 -7 15 1 61 2 101 2 l73 1 -1 268 c-1 275 -6 316 -46 394 -10 20 -31 50 -46
66 -28 29 -113 87 -113 77 0 -3 -9 -1 -21 5 -26 14 -145 19 -184 8 -16 -5 -38
-11 -49 -13 -20 -5 -85 -51 -101 -73 -7 -9 -10 51 -10 195 l0 208 -107 2 c-60
1 -109 -1 -109 -5z"/>
<path d="M26744 8246 c-2 -6 -5 -98 -6 -204 l-3 -193 -23 21 c-12 12 -48 33
-80 48 -49 22 -71 26 -156 26 -71 1 -101 -3 -104 -12 -2 -6 -8 -9 -13 -6 -11
7 -87 -27 -121 -53 -36 -29 -93 -90 -106 -115 -11 -23 -29 -68 -30 -78 0 -3
-6 -18 -12 -35 -12 -31 -16 -197 -5 -215 3 -6 8 -20 11 -32 3 -13 6 -27 8 -33
7 -31 51 -98 86 -134 91 -92 180 -125 323 -119 100 4 141 18 198 69 18 16 34
29 35 29 2 0 1 -10 -1 -22 -3 -13 1 -34 8 -47 12 -25 20 -26 172 -22 l31 1 0
569 -1 570 -103 -1 c-65 -1 -105 -5 -108 -12z m-164 -519 c51 -14 94 -47 117
-90 27 -53 39 -133 22 -153 -6 -8 -9 -21 -5 -29 3 -8 1 -15 -4 -15 -6 0 -10
-6 -10 -14 0 -24 -52 -74 -95 -92 -87 -37 -192 -18 -246 44 -44 50 -57 88 -55
158 3 99 57 172 146 196 24 6 99 4 130 -5z"/>
<path d="M16100 8141 c-14 -4 -37 -6 -52 -4 -14 2 -30 -2 -34 -9 -5 -7 -9 -55
-9 -107 l0 -94 -75 -1 -74 -1 -1 -88 c-1 -49 3 -91 8 -94 5 -3 39 -5 76 -5
l67 0 1 -191 c0 -264 4 -285 68 -356 56 -62 108 -81 217 -80 144 1 196 24 172
77 -4 9 -9 22 -9 27 -1 6 -7 23 -13 38 -7 16 -12 37 -12 47 0 22 -32 35 -57
22 -23 -12 -93 -10 -114 3 -32 20 -37 51 -39 232 l-1 182 106 -1 c59 0 108 2
110 4 2 2 5 44 7 93 l2 90 -110 3 -110 3 1 97 c1 53 0 103 -3 110 -5 13 -80
15 -122 3z"/>
<path d="M12260 7944 c-25 -9 -52 -18 -60 -21 -8 -4 -18 -7 -22 -7 -4 -1 -31
-18 -61 -40 -61 -44 -123 -126 -143 -191 -17 -54 -25 -117 -21 -177 6 -103 10
-119 47 -193 37 -75 100 -137 182 -178 56 -28 57 -28 224 -25 162 3 171 4 225
31 49 25 119 80 119 93 0 8 -133 134 -141 134 -3 0 -12 -7 -19 -14 -9 -12 -68
-38 -90 -41 -3 0 -9 -3 -15 -7 -8 -5 -39 -7 -110 -9 -11 -1 -46 7 -78 17 -35
10 -84 51 -100 84 -9 16 -12 31 -9 33 4 2 139 3 300 3 218 -1 296 2 304 11 9
11 6 141 -5 203 -19 109 -88 207 -182 257 -33 17 -62 30 -64 27 -2 -2 -11 2
-18 8 -22 18 -209 19 -263 2z m230 -206 c40 -18 75 -53 84 -85 l7 -22 -195 0
c-108 1 -196 4 -196 7 0 22 53 76 91 95 56 26 155 29 209 5z"/>
<path d="M13245 7953 c-49 -8 -113 -28 -146 -44 -97 -48 -190 -173 -204 -275
-13 -97 -6 -229 15 -279 30 -71 43 -95 51 -95 5 0 9 -6 9 -13 0 -20 59 -71
122 -106 54 -30 57 -31 194 -31 137 0 141 1 186 29 25 16 53 39 62 52 16 23
16 23 16 -18 0 -23 4 -45 10 -48 14 -9 189 -9 198 0 4 3 7 184 8 401 0 456 16
407 -126 402 l-85 -3 0 -42 0 -42 -30 31 c-58 59 -186 96 -280 81z m180 -223
c27 -11 58 -39 80 -74 24 -36 26 -46 32 -120 13 -164 -123 -270 -283 -220 -78
24 -127 78 -140 153 -3 14 -6 35 -8 46 -10 58 54 195 90 195 7 0 14 5 16 10 8
26 155 32 213 10z"/>
<path d="M14215 7953 c-181 -38 -296 -141 -333 -298 -8 -32 -7 -237 1 -264 28
-100 109 -197 205 -246 53 -28 66 -30 186 -33 125 -4 216 9 216 29 0 5 6 9 14
9 20 0 106 69 106 85 0 16 -115 128 -137 133 -8 2 -23 -4 -33 -13 -25 -22 -96
-42 -145 -40 -132 6 -198 74 -200 210 -2 86 19 135 81 187 51 44 204 42 252
-2 23 -21 48 -26 54 -10 2 5 29 36 61 69 57 59 58 60 39 78 -80 76 -153 106
-262 109 -47 1 -94 -1 -105 -3z"/>
<path d="M17784 7945 c-64 -17 -134 -47 -134 -57 0 -5 -5 -8 -11 -8 -16 0 -82
-69 -111 -115 -26 -42 -54 -114 -50 -129 2 -4 -1 -13 -6 -20 -13 -16 -8 -163
7 -216 36 -125 124 -227 240 -276 49 -20 323 -20 382 1 51 18 145 80 153 101
4 10 -18 38 -60 79 -69 68 -78 74 -91 51 -10 -17 -126 -58 -168 -59 -96 -1
-181 33 -214 86 -12 19 -21 39 -21 44 0 5 122 9 299 9 165 0 303 2 306 6 16
16 4 189 -19 263 -22 72 -87 156 -143 187 -24 13 -43 27 -43 31 0 4 -6 7 -12
6 -7 -1 -26 3 -43 10 -45 19 -201 22 -261 6z m206 -197 c22 -5 52 -29 78 -62
42 -54 40 -55 -173 -58 -107 -2 -195 0 -195 3 0 22 67 93 102 108 38 16 132
20 188 9z"/>
<path d="M21220 7950 c-35 -10 -110 -58 -110 -70 0 -6 -4 -10 -10 -10 -5 0
-10 11 -10 24 0 14 -4 27 -9 31 -6 3 -53 7 -105 10 l-96 4 -1 -27 c-1 -15 0
-31 1 -37 2 -8 1 -160 -1 -280 0 -5 0 -23 0 -40 1 -16 1 -38 1 -47 0 -10 0
-39 0 -65 0 -27 1 -82 0 -123 0 -41 0 -103 1 -137 l0 -63 82 -1 c98 -2 119 0
132 11 9 7 11 64 5 95 -1 6 -2 15 0 20 2 14 2 228 0 240 -1 6 -2 12 -1 15 1 3
4 33 6 67 6 118 60 168 180 168 55 -1 78 -5 105 -23 19 -12 37 -22 40 -22 3 0
11 15 19 33 8 17 25 49 38 70 13 20 21 37 18 37 -3 0 2 11 10 24 15 23 15 25
-17 44 -85 53 -201 74 -278 52z"/>
<path d="M21845 7944 c-27 -8 -56 -16 -63 -18 -7 -1 -18 -8 -24 -14 -7 -7 -17
-12 -23 -12 -13 0 -43 -23 -93 -73 -35 -34 -87 -131 -98 -182 -10 -48 -13
-215 -3 -215 5 0 8 -10 7 -22 -3 -35 47 -131 96 -185 28 -31 70 -62 112 -82
l66 -32 167 3 c157 3 169 4 217 29 28 15 60 34 70 43 10 8 28 22 39 30 19 14
17 18 -52 87 -69 70 -73 72 -91 56 -24 -22 -130 -60 -148 -53 -8 3 -14 2 -14
-2 0 -10 -71 -5 -121 8 -46 13 -93 50 -114 92 -8 17 -15 32 -15 33 0 1 135 1
301 1 212 -1 303 2 310 10 9 11 6 138 -4 199 -22 122 -87 214 -190 266 -23 12
-42 21 -42 20 0 -1 -13 3 -30 9 -47 18 -202 20 -260 4z m242 -213 c33 -19 73
-71 73 -96 0 -3 -88 -5 -195 -5 -107 0 -195 2 -195 5 0 14 30 61 47 75 64 52
196 62 270 21z"/>
<path d="M22805 7949 c-80 -14 -155 -50 -209 -100 -53 -48 -106 -134 -106
-171 0 -10 -4 -18 -8 -18 -11 0 -16 -58 -15 -156 1 -77 21 -163 45 -191 6 -7
7 -13 4 -13 -10 0 47 -81 75 -107 13 -12 50 -35 83 -52 56 -30 62 -31 192 -31
148 0 181 10 237 72 l27 31 0 -41 c0 -22 5 -44 11 -48 14 -8 184 -9 197 0 7 4
10 143 9 404 l-2 397 -100 3 c-83 2 -102 0 -112 -14 -8 -11 -9 -24 -3 -40 12
-31 0 -30 -31 2 -56 59 -188 92 -294 73z m196 -217 c48 -19 100 -83 107 -130
2 -14 8 -34 13 -44 7 -12 6 -18 -1 -18 -7 0 -8 -6 -2 -16 10 -19 -14 -110 -35
-132 -7 -7 -18 -21 -25 -31 -33 -46 -135 -68 -224 -49 -77 16 -151 122 -149
213 3 99 65 193 143 213 43 11 137 7 173 -6z"/>
<path d="M23750 7942 c-80 -21 -112 -38 -172 -91 -64 -57 -101 -123 -125 -221
-13 -52 -6 -195 11 -245 38 -110 107 -192 203 -241 54 -27 67 -29 197 -32 137
-4 139 -3 200 27 33 16 78 45 99 63 l37 34 -73 72 -73 73 -24 -21 c-53 -46
-176 -59 -252 -26 -45 19 -82 67 -98 124 -12 47 -9 132 8 172 12 32 67 91 76
83 3 -3 6 -1 6 5 0 6 17 14 38 17 20 3 43 9 51 14 18 9 120 -16 138 -34 29
-30 52 -28 81 6 15 18 42 47 60 64 39 38 39 53 4 81 -110 87 -249 113 -392 76z"/>
<path d="M25453 7945 c-117 -32 -208 -103 -263 -206 -17 -32 -28 -59 -24 -59
3 0 0 -7 -7 -17 -10 -12 -14 -49 -14 -137 1 -114 3 -125 32 -188 41 -88 107
-157 188 -197 l65 -32 168 3 c151 3 172 5 214 26 56 28 123 79 123 95 0 7 -29
41 -64 76 -53 53 -67 62 -80 52 -21 -15 -80 -42 -105 -47 -12 -3 -32 -8 -46
-11 -103 -24 -222 26 -257 107 l-10 25 286 0 c157 0 297 1 310 4 24 4 24 4 18
110 -6 127 -30 200 -91 274 -32 39 -123 109 -139 106 -1 0 -9 2 -17 4 -62 20
-84 24 -155 25 -44 0 -104 -5 -132 -13z m222 -205 c42 -14 69 -40 84 -82 l10
-27 -202 1 c-111 0 -196 2 -189 5 6 2 12 10 12 16 1 22 37 56 83 80 53 26 137
29 202 7z"/>
<path d="M9970 7938 c-57 -11 -158 -60 -196 -96 -207 -192 -177 -530 60 -679
66 -42 129 -55 246 -51 91 3 113 7 163 32 76 37 162 123 195 195 31 66 32 72
36 176 6 172 -80 317 -229 385 -94 43 -182 55 -275 38z m159 -209 c8 -1 33
-21 57 -43 85 -82 90 -233 10 -319 -31 -33 -67 -48 -125 -52 -142 -9 -234 104
-208 255 11 63 63 140 94 140 7 0 13 4 13 9 0 17 74 21 159 10z"/>
<path d="M20315 7938 c-51 -11 -118 -42 -151 -71 -28 -24 -39 -22 -40 8 -2 50
-10 54 -105 53 -73 0 -91 -3 -97 -17 -9 -18 -9 -777 0 -786 7 -8 199 -8 206 0
4 4 8 109 8 233 1 140 6 238 13 255 35 89 111 135 203 124 81 -10 133 -59 149
-138 4 -24 8 -142 9 -261 l0 -218 33 -1 c115 -2 169 0 175 6 10 10 5 504 -5
550 -13 52 -43 111 -83 157 -33 39 -137 105 -147 94 -3 -3 -11 -2 -18 4 -16
13 -102 18 -150 8z"/>
<path d="M7384 7721 c-3 -3 -210 -6 -462 -7 -251 -2 -612 -5 -802 -8 -190 -3
-520 -8 -735 -11 -686 -9 -1282 -23 -1302 -30 -11 -4 -12 -29 -2 -40 10 -9
357 -18 1109 -29 195 -3 510 -8 700 -11 190 -3 590 -8 890 -11 701 -7 1551
-15 1570 -15 36 1 167 0 328 -3 95 -1 176 1 181 4 9 5 14 59 12 131 l-1 37
-741 -2 c-407 0 -743 -3 -745 -5z"/>
<path d="M27249 7537 c-1 -1 -2 -39 -4 -84 -2 -70 0 -83 14 -83 85 -3 1140 1
1431 5 206 3 697 7 1090 10 1063 8 1658 14 1910 20 433 10 736 16 900 18 162
2 165 3 168 25 2 13 -2 22 -10 23 -35 2 -318 9 -528 13 -129 2 -365 7 -525 11
-159 4 -297 7 -305 6 -36 -2 -116 -1 -455 4 -355 6 -827 10 -2225 19 -393 3
-883 7 -1087 10 -205 3 -373 4 -374 3z"/>
</g>
</svg>
